<?xml version="1.0" encoding="utf-8"?>
<!-- Generator: Adobe Illustrator 26.0.0, SVG Export Plug-In . SVG Version: 6.00 Build 0)  -->
<svg version="1.1" id="Layer_1" xmlns="http://www.w3.org/2000/svg" xmlns:xlink="http://www.w3.org/1999/xlink" x="0px" y="0px"
	 viewBox="0 0 595.28 447.89" style="enable-background:new 0 0 595.28 447.89;" xml:space="preserve">
<style type="text/css">
	.st0{clip-path:url(#SVGID_00000025435727167050727960000009129875365505108384_);fill:#ABA9AD;}
	.st1{clip-path:url(#SVGID_00000025435727167050727960000009129875365505108384_);fill:#BFBFC1;}
	.st2{clip-path:url(#SVGID_00000025435727167050727960000009129875365505108384_);fill:#1B1B1C;}
	.st3{clip-path:url(#SVGID_00000025435727167050727960000009129875365505108384_);fill:#FFFFFF;}
	.st4{clip-path:url(#SVGID_00000025435727167050727960000009129875365505108384_);fill:#9C9C9E;}
	.st5{clip-path:url(#SVGID_00000025435727167050727960000009129875365505108384_);fill:#C0BCDE;}
	.st6{clip-path:url(#SVGID_00000025435727167050727960000009129875365505108384_);fill:#A66775;}
	.st7{clip-path:url(#SVGID_00000025435727167050727960000009129875365505108384_);fill:#271210;}
	.st8{clip-path:url(#SVGID_00000025435727167050727960000009129875365505108384_);fill:#867672;}
	.st9{clip-path:url(#SVGID_00000025435727167050727960000009129875365505108384_);fill:#F57E2C;}
	.st10{clip-path:url(#SVGID_00000025435727167050727960000009129875365505108384_);fill:#6367AF;}
	.st11{clip-path:url(#SVGID_00000025435727167050727960000009129875365505108384_);fill:#5A55A5;}
	.st12{clip-path:url(#SVGID_00000025435727167050727960000009129875365505108384_);fill:#0B0B0B;}
	.st13{clip-path:url(#SVGID_00000025435727167050727960000009129875365505108384_);fill:#131313;}
	.st14{clip-path:url(#SVGID_00000025435727167050727960000009129875365505108384_);fill:#090909;}
	.st15{fill:#ED1F24;}
</style>
<g>
	<defs>
		<path id="SVGID_1_" d="M629.78,173.95c0,146.36-148.7,265-332.14,265c-183.44,0-332.14-118.64-332.14-265
			c0-146.36,148.71-265,332.14-265C481.08-91.06,629.78,27.59,629.78,173.95"/>
	</defs>
	<clipPath id="SVGID_00000115506229780960387010000017134242756692163232_">
		<use xlink:href="#SVGID_1_"  style="overflow:visible;"/>
	</clipPath>
	<path style="clip-path:url(#SVGID_00000115506229780960387010000017134242756692163232_);fill:#ABA9AD;" d="M553.53,87.93
		l-42.14,133.29c1.57,10.09,2.96,19.47,4.13,28.24c11.25,84.7,0.95,112.35-76.26,160.69c5.84,8.39,10.77,17,14.88,25.78
		c7.78,16.63,12.6,33.94,14.85,51.84c3.1,24.55,1.39,50.2-4.05,76.74c11.19,6.61,20.73,14.52,29.04,23.4
		c10.43,11.11,12.95,27.44,6.65,41.31c-7.68,16.87-15.65,32.47-24.08,46.1c21.61,31.14-7.48,65.8-39.88,84.56h-0.01
		c-13.72,7.96-28.04,13.04-39.34,13.81c-5.29,0.37-10.36-2.18-13.38-6.54l-6.43-9.26c-54.98-13.66-108.71-13.35-161.24,0l-6.43,9.26
		c-3.02,4.36-8.09,6.91-13.38,6.54c-6.49-0.45-13.97-2.31-21.77-5.32c-37.85-14.63-82.97-56.3-57.47-93.05
		c-8.43-13.63-16.4-29.24-24.08-46.1c-6.3-13.87-3.78-30.2,6.65-41.31c8.31-8.87,17.86-16.79,29.04-23.4
		c-6-29.24,17.3-101.12,4.4-164.2C128.9,379.1,85.26,368.57,82.24,348c-5.25-35.69-7.72-68.72-4.65-93.2
		c1.27-10.27,2.92-21.41,4.82-33.58L40.24,87.93C29.09,52.61,60.16,18.38,96.39,26.09l118.4,25.21c54.74-25.03,109.46-25.03,164.2,0
		l118.4-25.21C533.63,18.38,564.7,52.61,553.53,87.93"/>
	<path style="clip-path:url(#SVGID_00000115506229780960387010000017134242756692163232_);fill:#BFBFC1;" d="M379,69.3
		c-27.37-12.51-54.74-18.77-82.1-18.77c-27.37,0-54.73,6.26-82.1,18.77L96.39,44.09c-3.5-0.75-6.95-1.1-10.31-1.1
		c-17.91,0-33.52,10.01-41.8,24.51c1.14-8.28,4.76-16.15,10.66-22.65c8.19-9.02,19.42-13.93,31.2-13.93c2.98,0,6,0.31,9.01,0.96
		l118.4,25.2c0.41,0.09,0.82,0.13,1.23,0.13c0.85,0,1.69-0.18,2.46-0.54c26.43-12.08,53.03-18.12,79.64-18.12
		c26.61,0,53.22,6.04,79.64,18.12c0.78,0.36,1.62,0.54,2.47,0.54c0.41,0,0.83-0.04,1.23-0.13l118.4-25.2
		c3.01-0.64,6.03-0.96,9.01-0.96c11.79,0,23.02,4.91,31.2,13.93c5.9,6.5,9.52,14.37,10.66,22.65c-8.29-14.5-23.9-24.52-41.8-24.52
		c-3.37,0-6.81,0.35-10.31,1.1L379,69.3"/>
	<path style="clip-path:url(#SVGID_00000115506229780960387010000017134242756692163232_);fill:#1B1B1C;" d="M272.42,34.41
		c17.28,63.12,33.48,76.78,47.7,0"/>
	<path style="clip-path:url(#SVGID_00000115506229780960387010000017134242756692163232_);fill:#1B1B1C;" d="M208.98,55.87
		c16.83,37.39,30.83,39.66,40.1-16.97"/>
	<path style="clip-path:url(#SVGID_00000115506229780960387010000017134242756692163232_);fill:#1B1B1C;" d="M388.97,55.87
		c-16.83,37.39-30.83,39.66-40.1-16.97"/>
	<path style="clip-path:url(#SVGID_00000115506229780960387010000017134242756692163232_);fill:#FFFFFF;" d="M346.67,414.23
		c50.23,1.33,80.02-34.04,71.84-67.21c-5.74-23.28-23.94-41.28-46.77-48.63c-0.21-0.07-0.42-0.14-0.63-0.2
		c-15.25-4.98-28.47-14.73-38.11-27.56c-4.67-6.22-9.92-11.57-16.09-15.58c-11.37-7.39-25.9-7.39-37.28,0
		c-6.17,4.01-11.43,9.36-16.1,15.58c-9.64,12.83-22.86,22.58-38.11,27.56c-0.21,0.07-0.42,0.14-0.63,0.2
		c-22.83,7.35-41.03,25.35-46.77,48.63c-8.18,33.16,21.61,68.54,71.84,67.21H346.67"/>
	<path style="clip-path:url(#SVGID_00000115506229780960387010000017134242756692163232_);fill:#9C9C9E;" d="M286.26,438.79
		c-45.46-1.22-88.6-9.73-127.65-24.11c0.26-0.38,0.52-0.76,0.79-1.14c0.93-1.33,1.27-2.98,0.94-4.57c-0.33-1.59-1.29-2.97-2.66-3.83
		c-65.4-40.94-81.19-65.33-76.52-127.23c11.93,37.01,48.46,63.47,95.53,79.39c-0.48,29.18,26.96,56.98,70.44,56.98
		c0.91,0,1.82-0.01,2.74-0.04h96.81c0.92,0.02,1.83,0.04,2.74,0.04c44.51,0,72.21-29.12,70.36-59.05
		c48-17.48,83.92-46.37,92.04-86.67c6.92,68.91-7.09,93.64-75.69,136.58c-1.38,0.86-2.34,2.25-2.66,3.83
		c-0.32,1.59,0.01,3.24,0.94,4.57c0.37,0.53,0.73,1.05,1.09,1.58c-1.43,0.52-2.88,1.04-4.32,1.54c-4.74,0.5-8.74,2.02-12.08,4.01
		c-33.98,10.65-70.69,16.97-109.06,18.09c-3.86-0.42-7.78-0.64-11.75-0.64C294.21,438.13,290.2,438.35,286.26,438.79"/>
	<path style="clip-path:url(#SVGID_00000115506229780960387010000017134242756692163232_);fill:#C0BCDE;" d="M349.41,414.27
		c-0.9,0-1.82-0.01-2.74-0.04h-96.81c-0.92,0.02-1.83,0.04-2.74,0.04c-43.48,0-70.92-27.79-70.44-56.98
		c35.51,12.01,77.05,18.02,118.58,18.02c43.87,0,87.72-6.69,124.51-20.09C421.62,385.14,393.92,414.27,349.41,414.27"/>
	<path style="clip-path:url(#SVGID_00000115506229780960387010000017134242756692163232_);fill:#A66775;" d="M297.64,438.94
		c-3.81,0-7.6-0.05-11.38-0.15c3.94-0.44,7.95-0.67,12.01-0.67c3.97,0,7.89,0.22,11.75,0.64
		C305.91,438.88,301.78,438.94,297.64,438.94"/>
	<path style="clip-path:url(#SVGID_00000115506229780960387010000017134242756692163232_);fill:#1B1B1C;" d="M296.44,741.89
		c27.42,0,54.98,3.41,82.51,10.25c1.4,0.35,2.62,1.2,3.44,2.38l6.42,9.26c1.86,2.68,4.98,4.21,8.1,4.01
		c24.21-1.65,63.9-25.38,76.87-52.37c6.35-13.21,5.64-25.56-2.1-36.71c-1.34-1.94-1.41-4.49-0.17-6.5
		c7.76-12.56,15.52-27.43,23.72-45.44c5.37-11.8,3.18-25.47-5.57-34.81c-8.41-8.97-17.49-16.28-27.74-22.35
		c-2.18-1.29-3.3-3.81-2.79-6.29c12.17-59.35,4.07-108.35-24.75-149.79c-0.93-1.33-1.27-2.98-0.94-4.57
		c0.33-1.59,1.29-2.97,2.66-3.83c82.12-51.42,86.02-76.72,69.41-183c-0.14-0.91-0.07-1.83,0.21-2.7l42.16-133.29
		c4.6-14.55,1.23-29.98-9.03-41.28c-10.26-11.3-25.29-16.15-40.22-12.97l-118.4,25.2c-1.25,0.26-2.54,0.12-3.7-0.41
		c-52.85-24.16-106.44-24.16-159.28,0c-1.16,0.53-2.45,0.67-3.7,0.41l-118.4-25.2c-14.92-3.18-29.96,1.67-40.22,12.97
		C44.68,56.16,41.3,71.59,45.9,86.14l42.16,133.29c0.28,0.87,0.35,1.8,0.2,2.7c-16.61,106.27-12.72,131.58,69.41,183
		c1.38,0.86,2.34,2.25,2.66,3.83c0.32,1.59-0.02,3.24-0.94,4.57c-28.82,41.44-36.91,90.43-24.75,149.79c0.51,2.48-0.61,5-2.79,6.29
		c-10.25,6.07-19.33,13.37-27.74,22.35c-8.76,9.34-10.94,23-5.57,34.81c8.2,18.02,15.96,32.88,23.72,45.44
		c1.24,2.01,1.17,4.56-0.17,6.5c-7.74,11.15-8.44,23.5-2.1,36.71c12.97,26.98,52.66,50.71,76.87,52.37c3.13,0.21,6.24-1.32,8.1-4.01
		l6.42-9.26c0.81-1.18,2.03-2.02,3.41-2.37C241.74,745.31,269.01,741.89,296.44,741.89 M197.44,779.66c-0.46,0-0.92-0.01-1.38-0.05
		c-28.48-1.95-71.63-27.61-86.74-59.05c-7.61-15.82-7.27-31.4,0.92-45.3c-7.38-12.29-14.75-26.59-22.48-43.58
		c-7.37-16.2-4.34-34.97,7.71-47.82c8.2-8.75,16.98-16.05,26.75-22.24c-11.2-58.49-3.34-107.57,23.99-149.71
		c-42.83-27.4-62.43-47.78-71.59-73.98c-9.53-27.29-6.93-60.65,1.72-116.24L34.6,89.72C28.71,71.1,33.03,51.35,46.16,36.9
		c13.12-14.46,32.36-20.66,51.46-16.6l116.5,24.8c54.94-24.57,110.62-24.57,165.55,0l116.5-24.8c19.1-4.07,38.34,2.14,51.46,16.6
		c13.12,14.46,17.45,34.2,11.56,52.82l-41.74,131.96c8.65,55.6,11.25,88.96,1.72,116.24c-9.15,26.21-28.76,46.58-71.59,73.98
		c27.32,42.14,35.18,91.22,23.99,149.71c9.77,6.19,18.55,13.49,26.75,22.24c12.06,12.85,15.08,31.63,7.71,47.82
		c-7.73,16.99-15.1,31.29-22.48,43.58c8.19,13.9,8.53,29.47,0.92,45.3c-15.11,31.44-58.26,57.11-86.74,59.05
		c-7.27,0.48-14.43-2.98-18.65-9.07l-5.14-7.42c-51.7-12.49-103.51-12.5-154.06-0.01l-5.15,7.43
		C210.75,776.24,204.23,779.66,197.44,779.66"/>
	<path style="clip-path:url(#SVGID_00000115506229780960387010000017134242756692163232_);fill:#1B1B1C;" d="M76.99,218.82
		l16.97-29.25c0.62-1.07,1.99-1.43,3.06-0.81c0.92,0.54,1.32,1.63,1.01,2.61l-10.19,32.25c-0.99,3.14-4.34,4.88-7.48,3.89
		c-3.14-0.99-4.88-4.34-3.89-7.48C76.59,219.6,76.78,219.19,76.99,218.82L76.99,218.82z"/>
	<path style="clip-path:url(#SVGID_00000115506229780960387010000017134242756692163232_);fill:#271210;" d="M101,159.81
		c15.08-20.6,30.45-40.02,46.15-58.16c1.71-1.97,1.27-4.99-0.93-6.4c-19.15-12.32-41.08-19.27-65.36-21.7
		c-9.09-0.91-16.5,7.16-14.8,16.13c4.92,25.84,13.99,50.33,28.01,70.12C95.76,162.17,99.28,162.16,101,159.81"/>
	<path style="clip-path:url(#SVGID_00000115506229780960387010000017134242756692163232_);fill:#BFBFC1;" d="M97.52,168
		c-1.3,0-2.6-0.59-3.44-1.77c-14.02-19.8-23.09-44.28-28.01-70.12c-0.38-1.99-0.31-3.93,0.13-5.75c3.18,16.48,8.07,32.4,14.85,46.89
		c2.95,6.31,6.27,12.34,9.96,18.03c0.99,1.53,2.02,3.04,3.07,4.52c0.84,1.19,2.14,1.77,3.45,1.77c1.2,0,2.4-0.5,3.26-1.49
		c0.08-0.09,0.15-0.18,0.22-0.28c1.49-2.04,2.99-4.07,4.49-6.09c13.51-18.18,27.26-35.41,41.27-51.62c1.72,1.51,1.95,4.18,0.38,5.97
		c-15.69,18.15-31.07,37.57-46.14,58.16C100.14,167.41,98.83,168,97.52,168"/>
	<path style="clip-path:url(#SVGID_00000115506229780960387010000017134242756692163232_);fill:#867672;" d="M97.52,161.57
		c-1.3,0-2.61-0.59-3.45-1.77c-1.05-1.48-2.07-2.99-3.07-4.52c0.99,1.53,2.02,3.04,3.07,4.52
		C94.92,160.98,96.22,161.57,97.52,161.57c1.2,0,2.4-0.5,3.26-1.49C99.93,161.08,98.72,161.57,97.52,161.57 M105.49,153.72
		c13.51-18.18,27.26-35.42,41.27-51.63c0,0,0,0,0,0C132.75,118.31,119,135.54,105.49,153.72 M81.06,137.25
		c-6.78-14.48-11.67-30.4-14.85-46.89c0,0,0-0.01,0-0.02C69.39,106.83,74.27,122.76,81.06,137.25"/>
	<path style="clip-path:url(#SVGID_00000115506229780960387010000017134242756692163232_);fill:#1B1B1C;" d="M505.96,223.61
		l-10.19-32.25c-0.37-1.18,0.28-2.43,1.46-2.81c1.02-0.32,2.09,0.12,2.61,1.01l16.97,29.25c1.65,2.85,0.68,6.5-2.17,8.15
		c-2.85,1.65-6.5,0.68-8.15-2.16C506.27,224.43,506.09,224.01,505.96,223.61L505.96,223.61z"/>
	<path style="clip-path:url(#SVGID_00000115506229780960387010000017134242756692163232_);fill:#271210;" d="M492.79,161.8
		c-15.07-20.6-30.45-40.02-46.15-58.16c-1.71-1.97-1.27-4.99,0.92-6.4c19.15-12.32,41.08-19.27,65.36-21.7
		c9.09-0.91,16.5,7.16,14.8,16.13c-4.92,25.84-13.99,50.33-28.01,70.12C498.03,164.16,494.5,164.15,492.79,161.8"/>
	<path style="clip-path:url(#SVGID_00000115506229780960387010000017134242756692163232_);fill:#BFBFC1;" d="M498.12,170.96
		c-1.31,0-2.62-0.59-3.48-1.76c-15.07-20.6-30.45-40.02-46.14-58.16c-1.39-1.59-1.37-3.85-0.15-5.41
		c15.11,17.57,29.91,36.33,44.44,56.18c0.86,1.17,2.17,1.76,3.48,1.76c1.31,0,2.61-0.59,3.45-1.77
		c14.01-19.79,23.09-44.27,28.01-70.12c0.13-0.69,0.21-1.37,0.24-2.05c1.59,2.72,2.26,6.01,1.62,9.44
		c-4.92,25.84-13.99,50.32-28.01,70.11C500.72,170.37,499.43,170.96,498.12,170.96"/>
	<path style="clip-path:url(#SVGID_00000115506229780960387010000017134242756692163232_);fill:#867672;" d="M496.26,163.57
		c-1.31,0-2.62-0.59-3.48-1.76c-14.53-19.85-29.33-38.61-44.44-56.18c0.26-0.33,0.57-0.63,0.94-0.89
		c14.79,17.25,29.28,35.64,43.51,55.08c0.86,1.17,2.17,1.76,3.48,1.76c1.31,0,2.61-0.59,3.44-1.77
		c14.02-19.78,23.09-44.28,28.01-70.12c0.01-0.12,0.04-0.22,0.06-0.34c0.06,0.1,0.12,0.19,0.18,0.29c-0.03,0.68-0.1,1.36-0.24,2.05
		c-4.92,25.84-13.99,50.33-28.01,70.12C498.87,162.98,497.57,163.57,496.26,163.57"/>
	<path style="clip-path:url(#SVGID_00000115506229780960387010000017134242756692163232_);fill:#1B1B1C;" d="M218.45,55.96
		l-30.45,19.27c-1.04,0.66-2.42,0.35-3.08-0.69c-0.58-0.91-0.41-2.08,0.33-2.8l25.86-25.09c2.36-2.29,6.13-2.23,8.43,0.13
		c2.29,2.36,2.23,6.13-0.13,8.43C219.13,55.48,218.78,55.74,218.45,55.96L218.45,55.96z"/>
	<path style="clip-path:url(#SVGID_00000115506229780960387010000017134242756692163232_);fill:#1B1B1C;" d="M382.94,46.64
		l25.86,25.09c0.89,0.86,0.91,2.27,0.05,3.16c-0.75,0.77-1.92,0.89-2.8,0.33L375.6,55.96c-2.78-1.76-3.61-5.44-1.85-8.22
		c1.76-2.78,5.44-3.61,8.22-1.85C382.32,46.1,382.66,46.37,382.94,46.64L382.94,46.64z"/>
	<path style="clip-path:url(#SVGID_00000115506229780960387010000017134242756692163232_);fill:#F57E2C;" d="M318.64,286.05
		c0,6.75-9.12,9.26-20.38,9.26c-11.25,0-20.37-2.51-20.37-9.26c0-6.75,9.12-12.22,20.37-12.22
		C309.52,273.82,318.64,279.3,318.64,286.05L318.64,286.05z"/>
	<path style="clip-path:url(#SVGID_00000115506229780960387010000017134242756692163232_);fill:#6367AF;" d="M409.36,425.34
		l-32.25,32.91c-4.78,4.87-8.19,11.03-9.25,17.77c-2.79,17.66,9.68,32.03,27.18,35.32c10.69,2.01,21.72-0.81,30.55-7.16l28.23-20.3
		L409.36,425.34L409.36,425.34z"/>
	<path style="clip-path:url(#SVGID_00000115506229780960387010000017134242756692163232_);fill:#5A55A5;" d="M409.97,425.95
		c-8.15,13.36-18.19,24.87-28.64,35.98c-4.53,4.76-7.72,10.46-8.34,16.73c-0.75,6.27,1.09,12.66,5.22,17.48
		c4.05,4.9,10.1,8.13,16.51,9.42c6.36,1.4,13.03,0.72,19.22-1.5c1.55-0.54,3.07-1.2,4.54-1.97c1.5-0.75,2.86-1.56,4.36-2.54
		c3.17-2.12,6.34-4.24,9.63-6.2c6.57-3.92,13.37-7.53,20.85-10.19c0.47-0.17,0.98,0.08,1.15,0.55c0.11,0.3,0.04,0.62-0.14,0.86
		c-4.9,6.25-10.48,11.54-16.29,16.53c-2.9,2.49-5.92,4.82-8.94,7.16c-3.28,2.58-7.12,4.83-11.14,6.39
		c-8.04,3.18-17.24,3.98-25.72,1.74c-8.42-2.05-16.41-6.64-22.06-13.59c-2.82-3.45-5.01-7.47-6.37-11.77
		c-1.35-4.3-1.86-8.86-1.54-13.31c0.48-9.02,4.89-17.64,11.08-23.63c10.9-10.67,22.2-20.94,35.4-29.35
		c0.41-0.26,0.96-0.14,1.23,0.27C410.15,425.3,410.14,425.67,409.97,425.95L409.97,425.95z"/>
	<path style="clip-path:url(#SVGID_00000115506229780960387010000017134242756692163232_);fill:#6367AF;" d="M186.76,425.34
		l32.25,32.91c4.78,4.87,8.19,11.03,9.25,17.77c2.79,17.66-9.68,32.03-27.18,35.32c-10.69,2.01-21.72-0.81-30.55-7.16l-28.23-20.3"
		/>
	<path style="clip-path:url(#SVGID_00000115506229780960387010000017134242756692163232_);fill:#5A55A5;" d="M187.37,424.74
		c13.2,8.41,24.5,18.68,35.4,29.35c6.19,5.99,10.61,14.61,11.08,23.63c0.32,4.45-0.18,9.01-1.54,13.31
		c-1.36,4.3-3.55,8.32-6.37,11.77c-5.65,6.95-13.64,11.55-22.06,13.59c-8.48,2.23-17.69,1.44-25.72-1.74
		c-4.02-1.56-7.85-3.81-11.14-6.39c-3.02-2.33-6.03-4.67-8.94-7.16c-5.81-4.99-11.39-10.28-16.29-16.53
		c-0.31-0.39-0.24-0.96,0.15-1.26c0.25-0.2,0.58-0.24,0.86-0.14c7.48,2.66,14.28,6.27,20.85,10.19c3.28,1.96,6.46,4.08,9.63,6.2
		c1.49,0.98,2.85,1.78,4.36,2.54c1.47,0.77,2.98,1.43,4.54,1.97c6.19,2.23,12.85,2.9,19.22,1.5c6.4-1.3,12.46-4.52,16.51-9.42
		c4.14-4.83,5.98-11.21,5.22-17.48c-0.62-6.28-3.81-11.97-8.34-16.73c-10.45-11.11-20.49-22.62-28.64-35.98
		c-0.25-0.42-0.12-0.96,0.3-1.22C186.73,424.55,187.1,424.56,187.37,424.74L187.37,424.74z"/>
	<path style="clip-path:url(#SVGID_00000115506229780960387010000017134242756692163232_);fill:#0B0B0B;" d="M176.05,192.91
		c2.91-0.97,5.57-1.49,8.19-1.93c2.6-0.4,5.12-0.65,7.57-0.75c4.89-0.21,9.53,0.06,13.96,0.73c8.87,1.31,16.94,4.14,24.42,8.07
		c7.47,3.95,14.35,9.02,20.43,15.61c3.05,3.28,5.87,6.97,8.45,11.14c1.28,2.09,2.5,4.32,3.63,6.7c1.11,2.42,2.17,4.93,3,7.89
		c-2.91,0.99-5.58,1.52-8.21,1.96c-2.61,0.41-5.13,0.66-7.58,0.77c-4.89,0.21-9.54-0.05-13.96-0.72
		c-8.86-1.32-16.93-4.16-24.39-8.12c-7.46-3.98-14.33-9.06-20.4-15.66c-3.05-3.28-5.87-6.97-8.45-11.13
		c-1.29-2.09-2.5-4.31-3.63-6.69C177.95,198.36,176.88,195.86,176.05,192.91L176.05,192.91z"/>
	<path style="clip-path:url(#SVGID_00000115506229780960387010000017134242756692163232_);fill:#0B0B0B;" d="M424.02,192.91
		c-0.83,2.95-1.9,5.45-3.01,7.86c-1.13,2.38-2.35,4.6-3.63,6.69c-2.58,4.16-5.41,7.85-8.45,11.13c-6.07,6.59-12.95,11.68-20.4,15.66
		c-7.47,3.96-15.53,6.8-24.39,8.12c-4.42,0.68-9.07,0.93-13.96,0.72c-2.45-0.11-4.97-0.36-7.58-0.77c-2.63-0.44-5.3-0.97-8.21-1.96
		c0.82-2.96,1.89-5.47,3-7.89c1.13-2.39,2.34-4.61,3.63-6.7c2.58-4.16,5.4-7.86,8.45-11.14c6.08-6.59,12.96-11.66,20.43-15.61
		c7.48-3.93,15.55-6.75,24.42-8.07c4.42-0.67,9.07-0.94,13.96-0.73c2.45,0.11,4.97,0.35,7.57,0.75
		C418.45,191.42,421.11,191.94,424.02,192.91L424.02,192.91z"/>
	<polygon style="clip-path:url(#SVGID_00000115506229780960387010000017134242756692163232_);fill:#1B1B1C;" points="297.27,295.31 
		297.27,320.62 254.02,320.62 254.02,322.61 342.31,322.61 342.31,320.62 254.02,320.62 254.02,322.61 299.26,322.61 299.26,295.31 
		297.27,295.31 	"/>
	<polygon style="clip-path:url(#SVGID_00000115506229780960387010000017134242756692163232_);fill:#131313;" points="274,336.67 
		265.7,322.29 282.3,322.29 274,336.67 	"/>
	<polygon style="clip-path:url(#SVGID_00000115506229780960387010000017134242756692163232_);fill:#090909;" points="274,336.67 
		274.29,336.51 266.27,322.62 281.73,322.62 273.71,336.51 274,336.67 274.29,336.51 274,336.67 274.29,336.84 282.88,321.96 
		265.12,321.96 274,337.34 274.29,336.84 274,336.67 	"/>
	<polygon style="clip-path:url(#SVGID_00000115506229780960387010000017134242756692163232_);fill:#131313;" points="320.12,336.67 
		311.82,322.29 328.43,322.29 320.12,336.67 	"/>
	<polygon style="clip-path:url(#SVGID_00000115506229780960387010000017134242756692163232_);fill:#090909;" points="320.12,336.67 
		320.41,336.51 312.39,322.62 327.85,322.62 319.83,336.51 320.12,336.67 320.41,336.51 320.12,336.67 320.41,336.84 329,321.96 
		311.24,321.96 320.12,337.34 320.41,336.84 320.12,336.67 	"/>
	<path style="clip-path:url(#SVGID_00000115506229780960387010000017134242756692163232_);fill:#1B1B1C;" d="M513.47,311.41
		c0,7.73-1.82,16.03-5.29,24.47c-5.19,12.66-14.09,25.59-25.64,37.24c-11.55,11.66-25.75,22.04-41.45,29.74
		c-18.68,9.17-40.55,16.6-64.62,21.73c-24.08,5.13-50.36,7.95-77.87,7.95c-28.35,0-55.39-3-80.05-8.42
		c-24.66-5.42-46.96-13.28-65.8-22.94c-20.16-10.33-38.72-23.94-52.04-38.77c-6.66-7.41-12.02-15.11-15.66-22.8
		c-3.65-7.69-5.59-15.33-5.59-22.73h-9.96c0,9.16,2.4,18.26,6.56,27.01c6.24,13.13,16.41,25.57,28.92,36.8
		c12.52,11.23,27.41,21.25,43.23,29.36c19.73,10.11,42.8,18.21,68.21,23.8c25.4,5.59,53.14,8.65,82.19,8.66
		c28.2,0,55.16-2.89,79.95-8.17c24.79-5.28,47.41-12.94,66.94-22.53c22.32-10.97,41.65-26.86,55.53-44.56
		c6.94-8.85,12.52-18.16,16.39-27.58c3.87-9.42,6.03-18.97,6.04-28.26H513.47L513.47,311.41z"/>
</g>
<circle class="st15" cx="377" cy="218" r="10"/>
</svg>
