<?xml version="1.0" encoding="utf-8"?>
<!-- Generator: Adobe Illustrator 26.0.0, SVG Export Plug-In . SVG Version: 6.00 Build 0)  -->
<svg version="1.1" id="Layer_1" xmlns="http://www.w3.org/2000/svg" xmlns:xlink="http://www.w3.org/1999/xlink" x="0px" y="0px"
	 viewBox="0 0 684.14 587.73" style="enable-background:new 0 0 684.14 587.73;" xml:space="preserve">
<style type="text/css">
	.st0{fill:#FFFFFF;}
	.st1{opacity:0.35;}
	.st2{fill:#390075;}
	.st3{opacity:0.3;}
	.st4{fill:#6BD6F0;}
	.st5{fill:#6B184E;}
	.st6{fill:#B2223D;}
	.st7{fill:#945CC6;}
	.st8{fill:#102770;}
	.st9{fill:#B8C5D3;}
	.st10{opacity:0.6;}
	.st11{fill:#A5A5A5;}
	.st12{fill:#999999;}
	.st13{fill:#FFCE00;}
	.st14{opacity:0.5;}
	.st15{clip-path:url(#SVGID_00000101811714382883661570000010088397742843903674_);}
	.st16{clip-path:url(#SVGID_00000059298378169595576490000011807214695256700314_);fill:#F57E2C;}
	.st17{clip-path:url(#SVGID_00000059298378169595576490000011807214695256700314_);fill:#FCC095;}
	.st18{clip-path:url(#SVGID_00000059298378169595576490000011807214695256700314_);fill:#1B1B1C;}
	.st19{clip-path:url(#SVGID_00000059298378169595576490000011807214695256700314_);fill:#FFFFFF;}
	.st20{clip-path:url(#SVGID_00000059298378169595576490000011807214695256700314_);fill:#C5705F;}
	.st21{clip-path:url(#SVGID_00000059298378169595576490000011807214695256700314_);fill:#C0BCDE;}
	.st22{clip-path:url(#SVGID_00000059298378169595576490000011807214695256700314_);fill:#A66775;}
	.st23{clip-path:url(#SVGID_00000059298378169595576490000011807214695256700314_);fill:#250F0D;}
	.st24{clip-path:url(#SVGID_00000059298378169595576490000011807214695256700314_);fill:#847572;}
	.st25{clip-path:url(#SVGID_00000059298378169595576490000011807214695256700314_);fill:#6366AE;}
	.st26{clip-path:url(#SVGID_00000059298378169595576490000011807214695256700314_);fill:#5954A4;}
	.st27{clip-path:url(#SVGID_00000059298378169595576490000011807214695256700314_);fill:#090909;}
	.st28{clip-path:url(#SVGID_00000059298378169595576490000011807214695256700314_);fill:#111111;}
	.st29{clip-path:url(#SVGID_00000059298378169595576490000011807214695256700314_);fill:#070707;}
</style>
<g>
	<g>
	</g>
</g>
<g>
	<g>
	</g>
</g>
<g>
	<g>
		<g>
			<circle class="st0" cx="137.99" cy="805.84" r="65.66"/>
		</g>
		<g class="st1">
			<path class="st2" d="M81.66,840.79c0.92,1.05,1.87,2.09,2.87,3.09c25.65,25.65,67.22,25.65,92.86,0
				c21.24-21.22,24.88-53.4,10.94-78.39c4.06,20.74-1.92,43.03-17.97,59.08c-25.65,25.65-67.22,25.65-92.87,0
				c-1.56-1.56-3.04-3.19-4.41-4.86c1.68,7.85,4.85,15.43,9.44,22.36C82.23,841.63,81.93,841.22,81.66,840.79z"/>
		</g>
		<g>
			<path class="st2" d="M137.99,878.18c-18.53,0-37.07-7.05-51.17-21.16c-28.22-28.22-28.22-74.13,0-102.35
				c28.22-28.21,74.13-28.22,102.35,0c28.22,28.22,28.22,74.13,0,102.35l0,0C175.06,871.12,156.53,878.18,137.99,878.18z
				 M138,746.91c-15.1,0-30.19,5.75-41.69,17.24c-22.98,22.99-22.98,60.39,0,83.37c22.99,22.99,60.39,22.98,83.37,0
				c22.98-22.99,22.98-60.39,0-83.37C168.19,752.66,153.09,746.91,138,746.91z M184.42,852.27h0.02H184.42z"/>
		</g>
		<g>
			<circle class="st0" cx="544.52" cy="805.84" r="65.66"/>
		</g>
		<g>
			<g class="st1">
				<path class="st2" d="M484.5,780.94c0.65-1.58,1.36-3.14,2.13-4.68c-6.79,22.44-1.34,47.79,16.4,65.52
					c25.63,25.65,67.21,25.65,92.86,0c5.1-5.1,9.15-10.84,12.22-16.94c-0.74,2.46-1.63,4.89-2.66,7.26c1.75-4.02,3.1-8.17,4-12.4
					c-1.38,1.68-2.85,3.3-4.41,4.86c-25.65,25.65-67.22,25.65-92.87,0c-16.36-16.36-22.28-39.21-17.75-60.28
					C490.21,769.42,486.91,775.04,484.5,780.94z"/>
			</g>
		</g>
		<g>
			<path class="st2" d="M544.52,878.18c-18.53,0-37.07-7.05-51.17-21.16l0,0c-28.22-28.22-28.22-74.13,0-102.35
				c28.22-28.21,74.13-28.22,102.35,0c28.22,28.22,28.22,74.13,0,102.35C581.59,871.12,563.06,878.18,544.52,878.18z M502.84,847.52
				c22.99,22.99,60.38,22.99,83.37,0c22.98-22.99,22.98-60.39,0-83.37c-22.99-22.99-60.39-22.98-83.37,0
				C479.85,787.14,479.85,824.54,502.84,847.52L502.84,847.52z"/>
		</g>
		<g class="st3">
			<path class="st4" d="M692.3,311.77c0,26.64-2.97,52.58-8.61,77.51c-94.08-22.7-212.7-36.25-341.63-36.25S94.5,366.58,0.43,389.28
				c-5.64-24.93-8.61-50.87-8.61-77.51c0-193.45,156.81-350.25,350.24-350.25S692.3,118.32,692.3,311.77z"/>
		</g>
		<g>
			<path class="st2" d="M-4.61,397.39l-1.5-6.64c-5.82-25.74-8.77-52.31-8.77-78.99c0-196.83,160.13-356.96,356.95-356.96
				s356.95,160.13,356.95,356.96c0,26.67-2.95,53.24-8.77,78.99l-1.5,6.64l-6.62-1.6c-97.8-23.59-215.38-36.07-340.06-36.07
				c-124.69,0-242.28,12.47-340.06,36.07L-4.61,397.39z M342.06,346.31c122.89,0,239.06,12.04,336.51,34.85
				c4.65-22.69,7.01-46,7.01-69.39c0-189.43-154.1-343.54-343.53-343.54C152.64-31.77-1.46,122.34-1.46,311.77
				c0,23.39,2.36,46.7,7.01,69.39C102.99,358.35,219.15,346.31,342.06,346.31z"/>
		</g>
		<g>
			<path class="st2" d="M-4.61,397.39l-1.5-6.64c-5.82-25.74-8.77-52.31-8.77-78.99c0-196.83,160.13-356.96,356.95-356.96
				s356.95,160.13,356.95,356.96c0,26.67-2.95,53.24-8.77,78.99l-1.5,6.64l-6.62-1.6c-97.8-23.59-215.38-36.07-340.06-36.07
				c-124.69,0-242.28,12.47-340.06,36.07L-4.61,397.39z M342.06,346.31c122.89,0,239.06,12.04,336.51,34.85
				c4.65-22.69,7.01-46,7.01-69.39c0-189.43-154.1-343.54-343.53-343.54C152.64-31.77-1.46,122.34-1.46,311.77
				c0,23.39,2.36,46.7,7.01,69.39C102.99,358.35,219.15,346.31,342.06,346.31z"/>
		</g>
		<g>
			<path class="st0" d="M686.68,644.97c0,28.14-9.71,54.94-27.28,79.33c-52.44,72.69-174.78,123.67-317.33,123.67
				c-142.57,0-264.91-50.98-317.33-123.67C7.16,699.92-2.55,673.11-2.55,644.97c0-112.14,154.28-203.03,344.62-203.03
				C532.38,441.94,686.68,532.83,686.68,644.97z"/>
		</g>
		<g class="st1">
			<path class="st2" d="M342.06,835.39c140.73,0,261.72-49.7,315.25-120.92c-53.53,47.82-174.52,81.21-315.25,81.21
				c-140.74,0-261.73-33.38-315.25-81.21C80.33,785.68,201.32,835.39,342.06,835.39z"/>
		</g>
		<g class="st1">
			<path class="st5" d="M-2.25,653.57c0.86,11.99,3.46,23.74,7.7,35.11c-5.23-9.46-8-19.28-8-29.36
				C-2.55,657.39-2.45,655.48-2.25,653.57z"/>
			<path class="st2" d="M4.53,689.19c-5.4-9.76-8.13-19.8-8.13-29.87c0-1.95,0.1-3.93,0.31-5.87l2.09,0.04
				c0.84,11.78,3.41,23.49,7.64,34.82L4.53,689.19z"/>
		</g>
		<g class="st1">
			<path class="st5" d="M686.68,659.32c0,10.08-2.77,19.9-8,29.36c4.24-11.37,6.84-23.12,7.7-35.11
				C686.58,655.48,686.68,657.39,686.68,659.32z"/>
			<path class="st2" d="M679.59,689.19l-1.9-0.87c4.23-11.33,6.8-23.04,7.64-34.82l2.09-0.04c0.2,1.94,0.31,3.91,0.31,5.87
				C687.73,669.38,684.99,679.43,679.59,689.19z"/>
		</g>
		<g>
			<g>
				<path class="st6" d="M895.35,567.24c0,23.55-15.6,45.99-43.8,66.4c-84.19,60.84-280.62,125.73-509.48,125.73
					c-228.89,0-425.32-64.89-509.48-125.73c-28.21-20.41-43.8-42.84-43.8-66.4c0-93.86,247.7-169.94,553.29-169.94
					C647.62,397.3,895.35,473.38,895.35,567.24z"/>
			</g>
			<g>
				<path class="st2" d="M342.07,760.42c-230.78,0-426.19-65.28-510.1-125.93c-29.35-21.24-44.24-43.86-44.24-67.25
					c0-45.9,57.81-88.93,162.79-121.17c104.59-32.12,243.65-49.82,391.55-49.82c147.89,0,286.94,17.69,391.53,49.82
					c104.98,32.24,162.8,75.28,162.8,121.17c0,23.38-14.88,46.01-44.24,67.25C768.23,695.14,572.8,760.42,342.07,760.42z
					 M342.07,398.35c-304.51,0-552.24,75.76-552.24,168.89c0,22.67,14.59,44.72,43.37,65.55
					c83.64,60.46,278.56,125.53,508.87,125.53c230.27,0,425.2-65.07,508.87-125.53c28.78-20.82,43.37-42.88,43.37-65.55
					C894.3,474.11,646.57,398.35,342.07,398.35z"/>
			</g>
		</g>
		<g>
			<path class="st2" d="M342.07,854.68c-140.68,0-267.38-49.63-322.78-126.45c-18.95-26.29-28.55-54.3-28.55-83.25
				c0-56.71,37.02-109.75,104.24-149.35c66.1-38.94,153.86-60.39,247.09-60.39c93.23,0,180.98,21.45,247.08,60.39
				c67.22,39.6,104.24,92.64,104.24,149.35c0,28.95-9.61,56.96-28.55,83.25C609.43,805.04,482.73,854.68,342.07,854.68z
				 M342.07,448.65c-186.32,0-337.91,88.07-337.91,196.32c0,26.08,8.75,51.44,26.02,75.4c52.96,73.43,175.38,120.88,311.89,120.88
				c136.49,0,258.92-47.45,311.89-120.88c17.26-23.96,26.02-49.33,26.02-75.4C679.97,536.72,528.39,448.65,342.07,448.65z"/>
		</g>
		<g>
			<g>
				<path class="st7" d="M895.35,567.24c0,23.55-15.6,45.99-43.8,66.4c-84.19,60.84-280.62,125.73-509.48,125.73
					c-228.89,0-425.32-64.89-509.48-125.73c-28.21-20.41-43.8-42.84-43.8-66.4c0-93.86,247.7-169.94,553.29-169.94
					C647.62,397.3,895.35,473.38,895.35,567.24z"/>
			</g>
			<g>
				<path class="st8" d="M342.07,760.42c-230.78,0-426.19-65.28-510.1-125.93c-29.35-21.24-44.24-43.86-44.24-67.25
					c0-45.9,57.81-88.93,162.79-121.17c104.59-32.12,243.65-49.82,391.55-49.82c147.89,0,286.94,17.69,391.53,49.82
					c104.98,32.24,162.8,75.28,162.8,121.17c0,23.38-14.88,46.01-44.24,67.25C768.23,695.14,572.8,760.42,342.07,760.42z
					 M342.07,398.35c-304.51,0-552.24,75.76-552.24,168.89c0,22.67,14.59,44.72,43.37,65.55
					c83.64,60.46,278.56,125.53,508.87,125.53c230.27,0,425.2-65.07,508.87-125.53c28.78-20.82,43.37-42.88,43.37-65.55
					C894.3,474.11,646.57,398.35,342.07,398.35z"/>
			</g>
		</g>
		<g class="st1">
			<path class="st2" d="M895.36,567.24c0,23.55-15.6,45.98-43.8,66.4c-84.2,60.83-280.63,125.74-509.49,125.74
				c-228.89,0-425.33-64.91-509.48-125.74c-28.22-20.42-43.8-42.85-43.8-66.4c0-3.05,0.27-6.07,0.79-9.08
				c3.47,20.23,18.45,39.54,43.01,57.29c84.15,60.85,280.58,125.74,509.48,125.74c228.86,0,425.29-64.89,509.49-125.74
				c24.54-17.75,39.54-37.06,43.01-57.29C895.09,561.16,895.36,564.18,895.36,567.24z"/>
		</g>
		<g>
			<path class="st2" d="M342.07,766.08c-232.03,0-428.79-65.84-513.41-127c-30.91-22.37-46.58-46.53-46.58-71.84
				c0-48.59,59.23-93.55,166.79-126.58c105.12-32.28,244.76-50.07,393.21-50.07c148.44,0,288.08,17.78,393.2,50.07
				c107.56,33.03,166.8,77.99,166.8,126.58c0,25.3-15.67,49.47-46.58,71.83C770.83,700.24,574.06,766.08,342.07,766.08z
				 M342.07,404.01c-147.15,0-285.39,17.57-389.27,49.47c-99.97,30.7-157.31,72.17-157.31,113.75c0,20.75,13.8,41.26,41.03,60.96
				c82.92,59.94,276.5,124.46,505.55,124.46c229.01,0,422.6-64.52,505.55-124.46c27.22-19.7,41.02-40.21,41.02-60.96
				c0-41.59-57.34-83.05-157.32-113.75C627.44,421.58,489.2,404.01,342.07,404.01z"/>
		</g>
		<g>
			<path class="st0" d="M895.35,553.35c0,23.55-15.6,45.99-43.8,66.4c-84.19,60.84-280.62,103.51-509.48,103.51
				c-228.89,0-425.32-42.67-509.48-103.51c-28.21-20.41-43.8-42.84-43.8-66.4c0-93.86,247.7-169.94,553.29-169.94
				C647.62,383.41,895.35,459.48,895.35,553.35z"/>
			<path class="st2" d="M342.07,724.3c-222.72,0-422.95-40.71-510.1-103.71c-29.35-21.24-44.24-43.86-44.24-67.25
				c0-45.89,57.81-88.93,162.79-121.17c104.59-32.12,243.65-49.82,391.55-49.82c147.89,0,286.94,17.69,391.53,49.82
				c104.98,32.24,162.8,75.28,162.8,121.17c0,23.38-14.88,46.01-44.24,67.25C764.99,683.59,564.76,724.3,342.07,724.3z
				 M342.07,384.46c-304.51,0-552.24,75.76-552.24,168.89c0,22.67,14.59,44.73,43.37,65.55c86.81,62.76,286.56,103.31,508.87,103.31
				c222.28,0,422.03-40.55,508.87-103.31c28.78-20.82,43.37-42.87,43.37-65.55C894.3,460.22,646.57,384.46,342.07,384.46z"/>
		</g>
		<g>
			<path class="st0" d="M895.35,553.35c0,23.55-15.6,45.99-43.8,66.4c-84.19,60.84-280.62,103.51-509.48,103.51
				c-228.89,0-425.32-42.67-509.48-103.51c-28.21-20.41-43.8-42.84-43.8-66.4c0-93.86,247.7-169.94,553.29-169.94
				C647.62,383.41,895.35,459.48,895.35,553.35z"/>
			<path class="st2" d="M342.07,724.3c-222.72,0-422.95-40.71-510.1-103.71c-29.35-21.24-44.24-43.86-44.24-67.25
				c0-45.89,57.81-88.93,162.79-121.17c104.59-32.12,243.65-49.82,391.55-49.82c147.89,0,286.94,17.69,391.53,49.82
				c104.98,32.24,162.8,75.28,162.8,121.17c0,23.38-14.88,46.01-44.24,67.25C764.99,683.59,564.76,724.3,342.07,724.3z
				 M342.07,384.46c-304.51,0-552.24,75.76-552.24,168.89c0,22.67,14.59,44.73,43.37,65.55c86.81,62.76,286.56,103.31,508.87,103.31
				c222.28,0,422.03-40.55,508.87-103.31c28.78-20.82,43.37-42.87,43.37-65.55C894.3,460.22,646.57,384.46,342.07,384.46z"/>
		</g>
		<g>
			<path class="st2" d="M342.07,729.96c-223.84,0-425.36-41.13-513.41-104.78c-30.91-22.36-46.58-46.53-46.58-71.84
				c0-48.59,59.23-93.55,166.79-126.58c105.12-32.28,244.76-50.07,393.21-50.07c148.43,0,288.08,17.78,393.2,50.07
				c107.56,33.04,166.8,77.99,166.8,126.58c0,25.3-15.67,49.47-46.58,71.83C767.4,688.83,565.88,729.96,342.07,729.96z
				 M342.07,390.12c-147.15,0-285.39,17.57-389.27,49.47c-99.97,30.71-157.31,72.17-157.31,113.75c0,20.76,13.8,41.26,41.03,60.96
				c85.91,62.1,284.35,102.23,505.55,102.23c221.17,0,419.61-40.13,505.55-102.24c27.22-19.69,41.02-40.2,41.02-60.96
				c0-41.59-57.34-83.05-157.32-113.75C627.44,407.69,489.2,390.12,342.07,390.12z"/>
		</g>
		<g>
			<path class="st9" d="M895.35,522.96c0,23.55-15.6,45.99-43.8,66.4c-84.19,60.84-280.62,103.51-509.48,103.51
				c-228.89,0-425.32-42.67-509.48-103.51c-28.21-20.41-43.8-42.84-43.8-66.4c0-93.86,247.7-169.94,553.29-169.94
				C647.62,353.03,895.35,429.1,895.35,522.96z"/>
		</g>
		<g class="st10">
			<path class="st0" d="M895.36,529.26c0,23.55-15.6,45.98-43.8,66.4c-84.2,60.83-280.63,103.51-509.49,103.51
				c-228.89,0-425.33-42.68-509.48-103.51c-28.22-20.42-43.8-42.85-43.8-66.4c0-4.29,0.52-8.56,1.54-12.77
				c4.55,18.91,19.18,36.96,42.26,53.65c84.15,60.83,280.58,103.51,509.48,103.51c228.86,0,425.29-42.68,509.49-103.51
				c23.07-16.69,37.7-34.74,42.26-53.65C894.84,520.7,895.36,524.96,895.36,529.26z"/>
		</g>
		<g class="st10">
			<path class="st0" d="M895.36,516.67c0,3.91-0.44,7.78-1.28,11.63c-19.43-88.44-259.16-158.33-552.02-158.33
				c-292.88,0-532.59,69.89-552,158.33c-0.84-3.84-1.27-7.72-1.27-11.63c0-93.86,247.7-169.94,553.28-169.94
				C647.62,346.73,895.36,422.81,895.36,516.67z"/>
		</g>
		<g>
			<path class="st11" d="M621.59,510.68c-46.19,24.19-153.96,41.15-279.52,41.15c-125.58,0-233.35-16.96-279.52-41.15
				c46.18-24.2,153.95-41.16,279.52-41.16C467.63,469.52,575.4,486.48,621.59,510.68z"/>
			<path class="st2" d="M342.07,552.88c-122.24,0-232.15-16.2-280.01-41.27l-1.77-0.93l1.77-0.93
				c47.85-25.08,157.76-41.28,280.01-41.28c122.23,0,232.14,16.2,280.01,41.28l1.77,0.93l-1.77,0.93
				C574.2,536.68,464.29,552.88,342.07,552.88z M64.84,510.68c48.51,24.39,156.82,40.1,277.23,40.1
				c120.39,0,228.71-15.71,277.23-40.1c-48.51-24.4-156.82-40.11-277.23-40.11C221.65,470.57,113.33,486.28,64.84,510.68z"/>
		</g>
		<g>
			<path class="st2" d="M621.59,510.68c-46.19,24.19-153.96,41.15-279.52,41.15c-125.58,0-233.35-16.96-279.52-41.15
				c46.18-24.2,153.95-41.16,279.52-41.16C467.63,469.52,575.4,486.48,621.59,510.68z"/>
		</g>
		<g>
			<path class="st2" d="M342.06,558.55c-123.04,0-233.99-16.45-282.64-41.92l-11.35-5.94l11.35-5.95
				c48.6-25.48,159.54-41.94,282.64-41.94s234.04,16.46,282.64,41.94l11.35,5.95l-11.35,5.94
				C576.05,542.09,465.11,558.55,342.06,558.55z M78.61,510.68c52.07,21.12,152.49,34.45,263.46,34.45s211.39-13.32,263.46-34.45
				c-52.03-21.13-152.46-34.45-263.46-34.45S130.64,489.55,78.61,510.68z"/>
		</g>
		<g>
			<path class="st2" d="M342.07,558.54c-123.08,0-234.03-16.45-282.64-41.91c-18.33-9.61-27.63-20.49-27.63-32.34
				c0-22.14,31.68-40.41,94.16-54.32c57.8-12.86,134.55-19.95,216.11-19.95c81.56,0,158.3,7.08,216.1,19.95
				c62.48,13.91,94.17,32.18,94.17,54.32c0,11.85-9.3,22.73-27.63,32.34C576.08,542.09,465.14,558.54,342.07,558.54z M342.07,423.44
				c-80.61,0-156.32,6.97-213.19,19.62c-61.68,13.73-83.65,30.29-83.65,41.22c0,6.28,7.26,13.54,20.44,20.45
				c46.83,24.53,155.33,40.38,276.41,40.38c121.06,0,229.56-15.85,276.41-40.38c13.18-6.91,20.43-14.17,20.43-20.45
				c0-10.93-21.98-27.49-83.66-41.22C498.38,430.41,422.67,423.44,342.07,423.44z"/>
		</g>
		<g>
			<path class="st12" d="M645.63,484.3c0,9.36-8.56,18.27-24.04,26.39c-46.18-24.21-153.95-41.17-279.52-41.17
				s-233.34,16.96-279.52,41.17c-15.47-8.12-24.02-17.03-24.02-26.39c0-37.33,135.89-67.56,303.55-67.56
				C509.71,416.74,645.63,446.97,645.63,484.3z"/>
		</g>
		<g>
			<path class="st2" d="M62.54,518.26l-3.12-1.64c-18.32-9.62-27.62-20.5-27.62-32.33c0-22.15,31.68-40.42,94.15-54.33
				c57.79-12.86,134.53-19.94,216.1-19.94c81.56,0,158.31,7.08,216.11,19.94c62.49,13.9,94.17,32.18,94.17,54.33
				c0,11.84-9.3,22.72-27.64,32.33l-3.11,1.63l-3.12-1.63c-46.82-24.54-155.32-40.4-276.41-40.4s-229.58,15.86-276.41,40.4
				L62.54,518.26z M342.06,462.81c120.44,0,229.25,15.76,279.41,40.3c11.28-6.41,17.45-13.03,17.45-18.81
				c0-10.93-21.98-27.5-83.66-41.23c-56.86-12.65-132.58-19.62-213.19-19.62c-80.62,0-156.33,6.97-213.19,19.62
				c-61.67,13.72-83.65,30.29-83.65,41.23c0,5.77,6.16,12.39,17.43,18.81C112.82,478.56,221.63,462.81,342.06,462.81z"/>
		</g>
		<g>
			<path class="st2" d="M342.06,558.55c-123.04,0-233.99-16.45-282.64-41.92l-11.35-5.94l11.35-5.95
				c48.6-25.48,159.54-41.94,282.64-41.94s234.04,16.46,282.64,41.94l11.35,5.95l-11.35,5.94
				C576.05,542.09,465.11,558.55,342.06,558.55z M78.61,510.68c52.07,21.12,152.49,34.45,263.46,34.45s211.39-13.32,263.46-34.45
				c-52.03-21.13-152.46-34.45-263.46-34.45S130.64,489.55,78.61,510.68z"/>
		</g>
		<g>
			<path class="st2" d="M342.06,699.58c-223.83,0-425.35-41.13-513.41-104.78c-30.91-22.36-46.58-46.53-46.58-71.84
				c0-55.84,79.02-106.94,216.78-140.21c98.79-23.84,217.47-36.44,343.2-36.44c125.71,0,244.39,12.6,343.2,36.44
				c137.78,33.27,216.8,84.37,216.8,140.21c0,25.29-15.67,49.46-46.58,71.84C767.38,658.45,565.85,699.58,342.06,699.58z
				 M342.06,359.73c-124.69,0-242.28,12.47-340.06,36.07C-127.3,427.02-204.5,474.56-204.5,522.96c0,20.76,13.8,41.27,41.02,60.96
				c85.91,62.11,284.35,102.24,505.54,102.24c221.15,0,419.59-40.13,505.56-102.24c27.22-19.7,41.02-40.22,41.02-60.96
				c0-48.4-77.21-95.94-206.53-127.17C584.32,372.2,466.73,359.73,342.06,359.73z"/>
		</g>
		<g>
			<path class="st2" d="M342.06,558.55c-16.1,0-32.25-0.28-48.02-0.84c-5.89-0.22-11.71-0.46-17.47-0.74
				c-11.12-0.53-22.28-1.22-33.15-2.06c-1.45-0.1-2.94-0.22-4.43-0.34c-80.32-6.4-145.77-20.23-179.57-37.93
				c-7.29-3.84-13.18-7.87-17.53-12c-5.07-4.8-8.27-9.93-9.5-15.25c-0.76-1.33-1.51-2.66-2.26-4c-0.93-1.64-1.85-3.34-2.75-5.03
				c-0.79-1.46-1.57-2.95-2.36-4.46c-0.19-0.34-0.36-0.68-0.53-1.03c-0.75-1.45-1.48-2.9-2.22-4.37l-0.25-0.5
				c-0.81-1.64-1.59-3.24-2.35-4.84c-0.02-0.04-0.09-0.17-0.16-0.35c-0.74-1.54-1.46-3.08-2.16-4.64c-0.2-0.41-0.39-0.83-0.57-1.26
				c-1.24-2.72-2.62-5.87-4.13-9.49c-0.42-0.98-0.85-2.02-1.27-3.09c-0.42-1.02-0.9-2.16-1.34-3.3c-0.27-0.66-0.58-1.46-0.88-2.27
				c-0.44-1.1-0.94-2.39-1.41-3.68c-0.22-0.53-0.42-1.09-0.62-1.63c-0.53-1.42-1.02-2.8-1.52-4.18c-0.33-0.93-0.6-1.7-0.85-2.44
				c-0.46-1.28-0.95-2.72-1.42-4.15c-1.66-4.94-3.23-10.04-4.67-15.13c-0.47-1.6-0.92-3.26-1.36-4.93c-0.12-0.39-0.28-1-0.44-1.61
				c-0.45-1.7-0.9-3.44-1.32-5.18c-0.1-0.36-0.19-0.72-0.26-1.06c-0.42-1.67-0.81-3.33-1.18-5c-0.06-0.24-0.12-0.48-0.18-0.72
				c-0.91-3.59,1.26-7.3,4.85-8.21c3.6-0.91,7.23,1.21,8.13,4.81l0.24,1c0.37,1.67,0.76,3.34,1.18,5l0.22,0.9
				c0.41,1.7,0.85,3.4,1.29,5.08c0.12,0.46,0.23,0.89,0.35,1.31c0.48,1.77,0.9,3.34,1.36,4.9c1.39,4.93,2.9,9.82,4.5,14.59
				c0.45,1.36,0.9,2.69,1.36,4c0.27,0.8,0.51,1.48,0.74,2.14c0.53,1.49,1,2.81,1.49,4.11c0.22,0.6,0.37,1.03,0.55,1.46l0.1,0.26
				c0.43,1.19,0.89,2.37,1.36,3.56c0.31,0.85,0.57,1.5,0.83,2.14c0.44,1.14,0.87,2.17,1.3,3.2c0.42,1.07,0.79,1.97,1.18,2.87
				c1.49,3.56,2.8,6.58,4.05,9.31c0.17,0.39,0.27,0.61,0.37,0.83l0.1,0.22c0.7,1.55,1.42,3.08,2.16,4.62l0.12,0.27
				c0.79,1.65,1.52,3.14,2.25,4.63l0.23,0.45c0.72,1.45,1.45,2.88,2.19,4.32l0.11,0.22c0.06,0.13,0.12,0.26,0.19,0.38l0.11,0.19
				c0.78,1.48,1.55,2.95,2.34,4.42c0.86,1.62,1.72,3.21,2.61,4.79c0.91,1.63,1.79,3.2,2.71,4.77l0.61,1.05l0.21,1.2
				c0.49,2.86,2.43,5.91,5.76,9.06c3.46,3.29,8.35,6.6,14.54,9.86c32.24,16.89,95.82,30.18,174.41,36.44
				c1.44,0.12,2.87,0.23,4.32,0.33c10.8,0.83,21.83,1.51,32.83,2.04c5.72,0.28,11.48,0.52,17.31,0.73
				c15.6,0.55,31.59,0.84,47.53,0.84c32.22,0,63.88-1.12,94.11-3.34c17.11-1.25,33.6-2.83,49.02-4.7
				c59.8-7.16,107.13-18.64,133.27-32.35c6.16-3.23,11.04-6.55,14.52-9.85c3.34-3.16,5.29-6.22,5.79-9.09l0.21-1.17l0.6-1.03
				c2.39-4.13,4.68-8.28,6.79-12.32c0.69-1.29,1.33-2.53,1.96-3.79c0.29-0.55,0.49-0.94,0.68-1.33l0.12-0.25
				c0.64-1.23,1.24-2.46,1.83-3.69l0.25-0.51c0.2-0.41,0.4-0.82,0.6-1.24c0.63-1.29,1.19-2.47,1.71-3.65l0.09-0.2
				c1.16-2.42,2.25-4.87,3.33-7.32c0.84-1.93,1.68-3.88,2.48-5.84c0.76-1.8,1.46-3.53,2.14-5.28c0.29-0.72,0.55-1.37,0.79-2.03
				l0.08-0.2c0.47-1.18,0.93-2.37,1.36-3.55l0.1-0.25c0.19-0.46,0.36-0.93,0.53-1.41c0.53-1.42,1.02-2.8,1.51-4.18
				c0.24-0.66,0.47-1.34,0.69-2c0.52-1.45,0.97-2.78,1.4-4.1c1.61-4.81,3.12-9.7,4.5-14.57c0.47-1.62,0.9-3.19,1.32-4.77
				c0.18-0.61,0.29-1.04,0.4-1.48c0.45-1.71,0.89-3.41,1.3-5.11l0.22-0.89c0.43-1.69,0.82-3.38,1.21-5.06l0.06-0.26
				c0.05-0.23,0.1-0.45,0.15-0.67c0.91-3.59,4.55-5.77,8.15-4.87c3.59,0.91,5.77,4.55,4.87,8.14c-0.08,0.39-0.13,0.6-0.18,0.81
				c-0.38,1.62-0.78,3.33-1.21,5.04c-0.07,0.35-0.16,0.7-0.26,1.07c-0.42,1.74-0.87,3.48-1.32,5.21c-0.15,0.58-0.31,1.18-0.48,1.76
				c-0.4,1.49-0.85,3.15-1.33,4.81c-1.42,5.03-2.99,10.13-4.66,15.1c-0.46,1.39-0.95,2.84-1.45,4.25c-0.2,0.61-0.47,1.38-0.74,2.13
				c-0.51,1.44-1.03,2.88-1.56,4.3c-0.19,0.53-0.41,1.12-0.64,1.69c-0.45,1.26-0.94,2.52-1.44,3.78c-0.28,0.78-0.58,1.54-0.89,2.28
				c-0.7,1.79-1.44,3.65-2.23,5.49c-0.81,1.98-1.68,4.02-2.58,6.07c-1.07,2.42-2.22,5.02-3.47,7.63c-0.58,1.3-1.2,2.61-1.83,3.89
				c-0.18,0.39-0.42,0.89-0.67,1.4l-0.22,0.44c-0.62,1.29-1.27,2.6-1.95,3.92c-0.27,0.56-0.55,1.11-0.85,1.67
				c-0.6,1.21-1.3,2.55-2.01,3.89c-2.02,3.86-4.21,7.86-6.5,11.85c-1.25,5.33-4.44,10.45-9.52,15.26
				c-4.37,4.14-10.26,8.18-17.51,11.99c-27.56,14.45-76.53,26.44-137.91,33.79c-15.62,1.89-32.33,3.49-49.65,4.76
				C406.6,557.41,374.61,558.55,342.06,558.55z M31.7,459.17c0.03,0.06,0.06,0.12,0.08,0.18C31.75,459.29,31.72,459.23,31.7,459.17z
				"/>
		</g>
		<g>
			<ellipse class="st13" cx="342.07" cy="617.31" rx="39.85" ry="38.98"/>
		</g>
		<g class="st10">
			<path class="st0" d="M381.92,617.31c0,2.92-0.32,5.75-0.96,8.47c-3.94-17.46-19.86-30.53-38.9-30.53s-34.96,13.07-38.89,30.53
				c-0.64-2.72-0.96-5.55-0.96-8.47c0-21.52,17.83-38.99,39.84-38.99C364.07,578.33,381.92,595.79,381.92,617.31z"/>
		</g>
		<g class="st1">
			<path class="st5" d="M381.92,617.31c0,21.52-17.85,38.99-39.86,38.99c-22.01,0-39.84-17.46-39.84-38.99
				c0-3.25,0.4-6.41,1.17-9.43c4.31,16.98,19.98,29.56,38.67,29.56c18.69,0,34.37-12.58,38.69-29.56
				C381.52,610.91,381.92,614.06,381.92,617.31z"/>
			<path class="st2" d="M342.06,657.35c-22.55,0-40.89-17.96-40.89-40.04c0-3.3,0.41-6.56,1.21-9.69l1.02-3.99l1.01,3.99
				c4.3,16.94,19.79,28.77,37.65,28.77c17.88,0,33.37-11.83,37.67-28.77l1.01-3.99l1.02,3.99c0.8,3.14,1.21,6.4,1.21,9.69
				C382.97,639.39,364.62,657.35,342.06,657.35z M303.62,612.15c-0.24,1.7-0.36,3.43-0.36,5.16c0,20.92,17.4,37.94,38.79,37.94
				c21.4,0,38.81-17.02,38.81-37.94c0-1.73-0.12-3.46-0.36-5.16c-5.81,15.7-21.06,26.34-38.46,26.34
				C324.68,638.49,309.43,627.85,303.62,612.15z"/>
		</g>
		<g>
			<path class="st2" d="M342.07,663.01c-25.68,0-46.57-20.5-46.57-45.69c0-25.19,20.89-45.69,46.57-45.69
				c25.68,0,46.56,20.5,46.56,45.69C388.63,642.51,367.74,663.01,342.07,663.01z M342.07,585.04c-18.28,0-33.14,14.48-33.14,32.27
				c0,17.79,14.87,32.27,33.14,32.27c18.28,0,33.14-14.47,33.14-32.27C375.21,599.52,360.34,585.04,342.07,585.04z"/>
		</g>
		<g>
			
				<ellipse transform="matrix(0.1863 -0.9825 0.9825 0.1863 120.9508 1167.3916)" class="st13" cx="765.26" cy="510.67" rx="26.88" ry="38.98"/>
		</g>
		<g class="st10">
			<path class="st0" d="M803.69,511.71c-5.96-6.95-15.67-12.48-27.26-14.68c-21.15-4.01-40.55,4.56-43.32,19.14
				c-0.4,2.08-0.44,4.16-0.13,6.22c-4.92-5.7-7.26-12.4-6.02-18.97c2.77-14.6,22.16-23.17,43.32-19.16
				C788.43,487.7,801.96,499.29,803.69,511.71z"/>
		</g>
		<g class="st1">
			<path class="st5" d="M803.56,517.93c-2.77,14.6-22.14,23.17-43.3,19.16c-16.96-3.24-29.91-13.56-32.95-25.03
				c5.99,5.57,14.54,9.9,24.48,11.78c21.15,4.01,40.55-4.56,43.32-19.14c0.55-2.89,0.4-5.8-0.35-8.66
				C801.53,502.33,805.03,510.2,803.56,517.93z"/>
			<path class="st2" d="M770.54,539.12c-3.4,0-6.91-0.32-10.48-1c-16.97-3.24-30.54-13.6-33.77-25.79l-0.93-3.5l2.66,2.47
				c6.08,5.65,14.59,9.74,23.96,11.51c20.55,3.9,39.43-4.32,42.09-18.31c0.51-2.66,0.4-5.42-0.34-8.19l-0.93-3.5l2.65,2.46
				c7.28,6.76,10.61,15.09,9.12,22.86C802.19,530.77,787.84,539.12,770.54,539.12z M729.61,515.37
				c4.51,9.84,16.37,17.93,30.84,20.69c20.54,3.91,39.42-4.32,42.07-18.32v0c1.18-6.16-1.05-12.78-6.14-18.53
				c0.19,1.92,0.1,3.82-0.26,5.68c-2.87,15.12-22.85,24.08-44.54,19.97C743.3,523.3,735.64,519.97,729.61,515.37z"/>
		</g>
		<g>
			<path class="st2" d="M770.63,544.78c-3.82,0-7.72-0.37-11.63-1.11c-25.17-4.77-42.14-23.01-38.63-41.51
				c1.76-9.29,8.38-16.9,18.64-21.43c9.41-4.16,20.96-5.25,32.51-3.05c25.17,4.77,42.14,23.01,38.63,41.51
				c-1.76,9.29-8.38,16.9-18.64,21.43C785.29,543.37,778.12,544.78,770.63,544.78z M759.85,489.98c-5.6,0-10.88,1.02-15.41,3.02
				c-6.1,2.7-9.96,6.84-10.88,11.66c-2.04,10.74,10.76,22.57,27.95,25.83c8.9,1.69,17.64,0.93,24.58-2.14
				c6.1-2.7,9.96-6.84,10.88-11.66c2.04-10.74-10.76-22.57-27.95-25.83C765.92,490.27,762.84,489.98,759.85,489.98z"/>
		</g>
		<g>
			
				<ellipse transform="matrix(0.9825 -0.1863 0.1863 0.9825 -96.4614 -5.0592)" class="st13" cx="-75.15" cy="510.67" rx="38.98" ry="26.88"/>
		</g>
		<g class="st10">
			<path class="st0" d="M-113.58,511.71c5.96-6.95,15.67-12.48,27.26-14.68c21.15-4.01,40.55,4.56,43.32,19.14
				c0.4,2.08,0.44,4.16,0.13,6.22c4.92-5.7,7.26-12.4,6.02-18.97c-2.77-14.6-22.16-23.17-43.32-19.16
				C-98.31,487.7-111.85,499.29-113.58,511.71z"/>
		</g>
		<g class="st1">
			<path class="st5" d="M-113.44,517.93c2.77,14.6,22.14,23.17,43.3,19.16c16.96-3.24,29.91-13.56,32.95-25.03
				c-5.99,5.57-14.54,9.9-24.48,11.78c-21.15,4.01-40.55-4.56-43.32-19.14c-0.55-2.89-0.4-5.8,0.35-8.66
				C-111.41,502.33-114.92,510.2-113.44,517.93z"/>
			<path class="st2" d="M-80.42,539.12c-17.3,0-31.65-8.34-34.05-20.99v0c-1.48-7.77,1.84-16.1,9.12-22.86l2.65-2.46l-0.93,3.5
				c-0.73,2.77-0.85,5.53-0.34,8.19c2.66,13.99,21.54,22.2,42.09,18.31c9.37-1.77,17.88-5.86,23.96-11.51l2.66-2.47l-0.93,3.5
				c-3.23,12.19-16.79,22.55-33.77,25.79C-73.51,538.8-77.02,539.12-80.42,539.12z M-106.27,499.21
				c-5.09,5.75-7.32,12.36-6.14,18.53v0c2.65,14,21.53,22.22,42.07,18.32c14.47-2.76,26.33-10.85,30.84-20.69
				c-6.02,4.6-13.68,7.93-21.98,9.5c-21.68,4.11-41.67-4.85-44.54-19.97C-106.38,503.03-106.46,501.13-106.27,499.21z"/>
		</g>
		<g>
			<path class="st2" d="M-80.52,544.78c-7.49,0-14.65-1.41-20.88-4.16c-10.26-4.54-16.88-12.15-18.64-21.44
				c-3.51-18.5,13.46-36.74,38.63-41.51c11.55-2.19,23.1-1.11,32.51,3.05c10.26,4.54,16.88,12.15,18.64,21.44
				c3.51,18.5-13.46,36.74-38.63,41.51C-72.79,544.42-76.7,544.78-80.52,544.78z M-69.73,489.98c-2.99,0-6.07,0.29-9.17,0.88
				c-17.19,3.26-29.98,15.09-27.95,25.83c0.91,4.82,4.78,8.96,10.88,11.66c6.95,3.07,15.68,3.83,24.58,2.14
				c17.19-3.26,29.98-15.09,27.95-25.83c-0.91-4.82-4.78-8.96-10.88-11.66C-58.85,491-64.14,489.98-69.73,489.98z"/>
		</g>
		<g>
			<path class="st2" d="M187.04,833.04c-2.88,0-5.55-1.87-6.42-4.78c-1.07-3.55,0.94-7.29,4.49-8.36
				c50.79-15.31,63.34-64.73,63.46-65.22c0.87-3.6,4.5-5.82,8.1-4.94c3.6,0.87,5.81,4.5,4.94,8.1c-0.57,2.34-14.56,57.41-72.63,74.9
				C188.33,832.94,187.68,833.04,187.04,833.04z"/>
		</g>
		<g>
			<path class="st2" d="M497.85,832.81c-0.64,0-1.29-0.09-1.94-0.29c-58.05-17.49-72.29-72.35-72.87-74.67
				c-0.89-3.6,1.3-7.24,4.89-8.13c3.6-0.9,7.23,1.29,8.13,4.88l0,0c0.51,2.03,13.15,49.83,63.72,65.08
				c3.55,1.07,5.56,4.81,4.49,8.36C503.4,830.93,500.73,832.81,497.85,832.81z"/>
		</g>
		<g>
			<path class="st2" d="M737.9,648.39c-1.66,0-3.32-0.61-4.62-1.84c-78.77-74.74-174.74-108.52-175.7-108.85
				c-3.5-1.21-5.36-5.03-4.14-8.54c1.21-3.5,5.03-5.36,8.54-4.14c4.03,1.39,99.68,35.08,180.54,111.8c2.69,2.55,2.8,6.8,0.25,9.49
				C741.45,647.69,739.68,648.39,737.9,648.39z"/>
		</g>
		<g>
			<path class="st2" d="M-57.1,648.39c-1.78,0-3.55-0.7-4.87-2.09c-2.55-2.69-2.44-6.94,0.25-9.49
				c80.86-76.72,176.51-110.4,180.54-111.8c3.5-1.21,7.32,0.64,8.54,4.14c1.21,3.5-0.64,7.32-4.14,8.54
				c-0.96,0.33-97.02,34.21-175.7,108.85C-53.78,647.78-55.44,648.39-57.1,648.39z"/>
		</g>
		<g class="st14">
			<g>
				<path class="st0" d="M602.55,127.65c25.56,53.68,27.25,90.79,6.28,93.68c-15.81,2.18-39.68-52.68-49.31-70.67
					c-9.63-18-41.91-68.4-31.41-80.25C542.28,54.45,584.19,89.08,602.55,127.65z"/>
			</g>
		</g>
		<g class="st14">
			<g>
				<path class="st0" d="M645.96,284.54c5.7,32,0.03,45.26-9.96,43.71c-7.53-1.17-12.19-29.96-14.13-39.51
					c-1.94-9.55-8.55-36.59-2.12-40.57C628.42,242.8,640.04,251.3,645.96,284.54z"/>
			</g>
		</g>
		<g>
			<path class="st2" d="M178.55,547.7c-0.32,0-0.64-0.02-0.96-0.07c-52.65-7.55-93.53-18.38-118.21-31.34
				c-7.4-3.91-13.13-7.84-17.52-12.01c-5.07-4.81-8.25-9.94-9.49-15.27c-0.76-1.33-1.51-2.66-2.26-4c-0.93-1.67-1.84-3.35-2.73-5.03
				c-0.78-1.45-1.57-2.94-2.36-4.45c-0.19-0.34-0.36-0.68-0.53-1.03c-0.75-1.45-1.48-2.9-2.22-4.37l-0.41-0.82
				c-0.74-1.51-1.47-3.01-2.19-4.52c-0.04-0.08-0.11-0.22-0.18-0.39l-0.04-0.08c-0.7-1.5-1.4-3.01-2.09-4.52
				c-0.2-0.41-0.39-0.82-0.57-1.25c-1.27-2.79-2.64-5.94-4.14-9.52c-0.42-0.98-0.85-2.03-1.27-3.09c-0.42-1-0.88-2.15-1.32-3.3
				c-0.26-0.64-0.56-1.4-0.84-2.18c-0.5-1.26-0.99-2.52-1.44-3.78c-0.22-0.55-0.43-1.12-0.64-1.69c-0.51-1.37-1-2.74-1.5-4.12
				c-0.33-0.93-0.6-1.7-0.85-2.45c-0.47-1.29-0.96-2.77-1.42-4.22c-1.64-4.88-3.21-9.98-4.64-15.05c-0.37-1.28-0.73-2.62-1.09-3.97
				l-0.26-0.96c-0.12-0.4-0.28-1-0.44-1.61c-0.45-1.72-0.9-3.46-1.32-5.2c-0.1-0.36-0.19-0.71-0.26-1.06
				c-0.42-1.67-0.81-3.34-1.18-5c-0.06-0.24-0.12-0.48-0.18-0.71c-0.91-3.59,1.26-7.3,4.85-8.21c3.6-0.9,7.23,1.21,8.13,4.81l0.24,1
				c0.37,1.67,0.76,3.34,1.18,5.01l0.22,0.89c0.41,1.71,0.85,3.41,1.3,5.12c0.12,0.45,0.23,0.89,0.35,1.31l0.31,1.16
				c0.33,1.25,0.66,2.49,1.03,3.73c1.39,4.92,2.9,9.81,4.5,14.59c0.45,1.41,0.89,2.72,1.35,4c0.27,0.8,0.51,1.48,0.74,2.14
				c0.53,1.49,1,2.81,1.49,4.11c0.2,0.56,0.37,1.02,0.55,1.47l0.1,0.25c0.43,1.18,0.88,2.37,1.36,3.55l0.08,0.21
				c0.24,0.66,0.49,1.3,0.75,1.93c0.44,1.14,0.85,2.18,1.29,3.21c0.42,1.06,0.79,1.96,1.18,2.86c1.47,3.52,2.79,6.55,4.06,9.34
				c0.15,0.35,0.25,0.58,0.36,0.8l0.11,0.23c0.68,1.5,1.38,2.99,2.07,4.48l0.18,0.39c0.74,1.53,1.43,2.96,2.13,4.38l0.35,0.71
				c0.72,1.45,1.45,2.88,2.19,4.31l0.11,0.22c0.06,0.13,0.12,0.26,0.19,0.38l0.11,0.2c0.78,1.48,1.55,2.95,2.34,4.42
				c0.87,1.64,1.74,3.25,2.63,4.84c0.88,1.59,1.77,3.16,2.68,4.73l0.61,1.05l0.21,1.19c0.49,2.87,2.43,5.93,5.76,9.09
				c3.45,3.27,8.34,6.59,14.54,9.87c22.99,12.07,63.43,22.7,113.86,29.92c3.67,0.53,6.22,3.93,5.69,7.6
				C184.71,545.29,181.84,547.7,178.55,547.7z"/>
		</g>
		<g>
			<path class="st2" d="M505.5,547.95c-3.29,0-6.16-2.42-6.64-5.77c-0.52-3.67,2.04-7.07,5.71-7.58
				c50.42-7.11,90.86-17.66,113.87-29.7c6.18-3.24,11.06-6.55,14.51-9.83c3.36-3.16,5.31-6.22,5.81-9.09l0.21-1.17l0.6-1.03
				c2.6-4.49,4.82-8.52,6.8-12.31c0.69-1.29,1.33-2.53,1.96-3.79c0.29-0.56,0.49-0.94,0.68-1.34l0.12-0.25
				c0.64-1.23,1.25-2.46,1.84-3.69l0.24-0.49c0.2-0.42,0.41-0.83,0.6-1.25l0.25-0.52c0.51-1.04,1.02-2.09,1.49-3.15l0.09-0.2
				c1.16-2.42,2.25-4.87,3.33-7.31c0.84-1.93,1.68-3.88,2.48-5.84c0.77-1.81,1.48-3.55,2.17-5.29c0.28-0.69,0.54-1.34,0.78-2.01
				c0.55-1.38,1.01-2.57,1.44-3.75l0.09-0.25c0.19-0.46,0.36-0.94,0.53-1.42c0.53-1.42,1.02-2.8,1.51-4.18
				c0.24-0.66,0.47-1.34,0.69-2c0.44-1.25,0.83-2.37,1.21-3.49l0.23-0.69c1.59-4.73,3.1-9.62,4.47-14.5
				c0.47-1.62,0.91-3.18,1.34-4.76c0.18-0.61,0.29-1.04,0.4-1.48c0.45-1.71,0.89-3.41,1.3-5.11l0.22-0.89
				c0.41-1.64,0.8-3.28,1.18-4.91l0.06-0.24c0.09-0.4,0.14-0.63,0.19-0.84c0.91-3.6,4.55-5.76,8.15-4.87
				c3.59,0.91,5.77,4.55,4.87,8.15c-0.08,0.38-0.13,0.59-0.18,0.8c-0.4,1.72-0.79,3.38-1.21,5.04c-0.07,0.35-0.16,0.7-0.26,1.06
				c-0.42,1.74-0.87,3.49-1.33,5.21c-0.15,0.58-0.31,1.18-0.48,1.76c-0.4,1.49-0.86,3.15-1.35,4.8c-1.42,5.03-2.99,10.13-4.66,15.1
				l-0.24,0.71c-0.4,1.19-0.81,2.38-1.23,3.54c-0.2,0.61-0.47,1.38-0.74,2.13c-0.51,1.44-1.03,2.88-1.56,4.3
				c-0.19,0.53-0.41,1.11-0.64,1.69c-0.47,1.29-0.97,2.58-1.48,3.87c-0.22,0.62-0.54,1.42-0.85,2.19c-0.7,1.79-1.46,3.64-2.24,5.48
				c-0.8,1.97-1.68,4.02-2.58,6.07c-1.13,2.57-2.27,5.12-3.47,7.63c-0.52,1.18-1.09,2.35-1.66,3.51l-0.18,0.37
				c-0.18,0.39-0.43,0.9-0.68,1.42l-0.21,0.43c-0.62,1.29-1.27,2.6-1.95,3.91c-0.27,0.57-0.55,1.12-0.85,1.68
				c-0.59,1.2-1.29,2.54-2.01,3.88c-1.91,3.65-4.05,7.54-6.52,11.83c-1.25,5.34-4.46,10.46-9.55,15.26
				c-4.39,4.17-10.12,8.08-17.5,11.96c-24.69,12.92-65.57,23.68-118.22,31.1C506.13,547.93,505.81,547.95,505.5,547.95z"/>
		</g>
		<g>
			<path class="st0" d="M461.64,512.44H222.58c-21.12,0-38.24-17.12-38.24-38.24v-94.83c0-21.12,17.12-38.24,38.24-38.24h239.05
				c21.12,0,38.24,17.12,38.24,38.24v94.83C499.87,495.32,482.75,512.44,461.64,512.44z"/>
			<path class="st2" d="M454.5,513.49H229.71c-25.59,0-46.42-20.82-46.42-46.41v-80.57c0-25.59,20.82-46.42,46.42-46.42H454.5
				c25.59,0,46.42,20.82,46.42,46.42v80.57C500.92,492.67,480.1,513.49,454.5,513.49z M229.71,342.19
				c-24.44,0-44.32,19.88-44.32,44.32v80.57c0,24.44,19.88,44.32,44.32,44.32H454.5c24.44,0,44.32-19.88,44.32-44.32v-80.57
				c0-24.44-19.88-44.32-44.32-44.32H229.71z"/>
		</g>
		<g class="st1">
			<path class="st2" d="M461.64,512.44H222.58c-21.12,0-38.24-17.12-38.24-38.24v-94.83c0-21.12,17.12-38.24,38.24-38.24h239.05
				c21.12,0,38.24,17.12,38.24,38.24v94.83C499.87,495.32,482.75,512.44,461.64,512.44z"/>
		</g>
		<g>
			<path class="st2" d="M454.5,519.15H229.71c-28.72,0-52.08-23.36-52.08-52.08v-80.57c0-28.72,23.36-52.08,52.08-52.08H454.5
				c28.72,0,52.08,23.36,52.08,52.08v80.57C506.58,495.79,483.22,519.15,454.5,519.15z M229.71,347.85
				c-21.32,0-38.66,17.34-38.66,38.66v80.57c0,21.31,17.34,38.66,38.66,38.66H454.5c21.32,0,38.66-17.34,38.66-38.66v-80.57
				c0-21.32-17.34-38.66-38.66-38.66H229.71z"/>
		</g>
		<g>
			<path class="st0" d="M505.51,541.24c-5.79,0.82-11.71,1.59-17.77,2.33c-0.6,0.07-1.21,0.15-1.81,0.22
				c-15.67,1.88-32.16,3.44-49.34,4.68c-12.63,0.92-25.63,1.64-38.94,2.18c-18.03,0.74-36.66,1.11-55.66,1.09
				c-16.26,0-32.21-0.3-47.78-0.87c-2.63-0.1-5.27-0.2-7.88-0.32c-3.19-0.13-6.34-0.29-9.5-0.44c-11.22-0.55-22.25-1.24-32.97-2.08
				c-1.48-0.1-2.94-0.22-4.4-0.34c-16.94-1.38-33.18-3.05-48.57-5.03c-4.18-0.54-8.3-1.11-12.36-1.68
				c-9.24-13.66-14.39-32.45-12.2-57.31c1.01-11.34,3.2-22.21,6.29-32.55c8-26.77,22.43-50.24,41.27-69.1
				c31.2-31.27,74.52-49.86,120.79-49.83l14.98,0.02c49.74,0.05,96.03,21.62,127.48,57.29c15.48,17.53,27.4,38.47,34.36,61.92
				c3.09,10.35,5.27,21.22,6.24,32.56C519.9,508.83,514.75,527.6,505.51,541.24z"/>
			<path class="st2" d="M343.33,552.79c-16.41,0.02-32.93-0.28-49.15-0.87c-2.64-0.1-5.27-0.2-7.89-0.32
				c-3.19-0.14-6.34-0.28-9.5-0.44c-11.53-0.57-22.64-1.27-33-2.08c-1.47-0.1-2.93-0.22-4.4-0.34c-17.02-1.38-33.37-3.08-48.62-5.04
				c-4.18-0.54-8.31-1.11-12.38-1.68l-0.46-0.07l-0.26-0.39c-10.27-15.17-14.43-34.68-12.37-57.99c0.97-10.92,3.1-21.93,6.33-32.75
				c7.8-26.11,22.17-50.16,41.53-69.54c31.79-31.86,76.04-50.13,121.41-50.13c0.04,0,0.08,0,0.12,0l14.98,0.02
				c49.25,0.05,96,21.06,128.27,57.65c16.07,18.19,27.7,39.16,34.58,62.31c3.23,10.84,5.34,21.86,6.28,32.77
				c2.02,23.29-2.16,42.78-12.42,57.92l-0.26,0.39l-0.46,0.07c-5.48,0.78-11.3,1.54-17.79,2.33l-1.83,0.22
				c-15.53,1.86-32.15,3.44-49.38,4.69c-12.37,0.9-25.48,1.64-38.97,2.18C379.98,552.42,361.7,552.79,343.33,552.79z M179.15,540.02
				c3.91,0.55,7.87,1.09,11.89,1.61c15.21,1.96,31.53,3.65,48.52,5.03c1.46,0.12,2.91,0.23,4.38,0.33
				c10.35,0.81,21.44,1.51,32.95,2.08c3.15,0.15,6.3,0.3,9.49,0.43c2.62,0.12,5.25,0.22,7.88,0.32c16.2,0.6,32.74,0.87,49.08,0.87
				c18.34,0,36.6-0.37,54.28-1.09c13.47-0.54,26.55-1.28,38.9-2.18c17.19-1.24,33.78-2.81,49.29-4.68l1.82-0.22
				c6.28-0.77,11.94-1.51,17.27-2.26c9.79-14.67,13.77-33.57,11.81-56.18c-0.92-10.77-3.01-21.65-6.2-32.35
				c-6.79-22.86-18.27-43.56-34.14-61.52c-31.87-36.13-78.05-56.89-126.7-56.94l-14.98-0.02c-0.04,0-0.08,0-0.12,0
				c-44.82,0-88.52,18.04-119.93,49.52c-19.12,19.14-33.3,42.88-41.01,68.66c-3.19,10.68-5.29,21.56-6.25,32.34
				C165.39,506.39,169.35,525.31,179.15,540.02z"/>
		</g>
		<g class="st1">
			<path class="st2" d="M505.51,541.24c-107.12,14.29-219.77,14.18-326.97-0.25c-16.04-21.88-15.25-60.39-5.92-89.82
				c-0.03,0.23-0.05,0.45-0.08,0.68c-3.73,32.82,20.41,62.35,53.28,65.56c76.78,7.5,155.62,7.58,232.35,0.2
				c32.92-3.17,57.08-32.73,53.36-65.59c-0.03-0.27-0.06-0.54-0.09-0.81c0.02,0.07,0.05,0.15,0.07,0.22
				C520.81,480.75,521.53,519.48,505.51,541.24z"/>
		</g>
		<g>
			<path class="st12" d="M269.86,492.39l0.02-23.2c0-2.89-1.17-5.52-3.07-7.42c-1.88-1.9-4.5-3.07-7.4-3.07
				c-5.79-0.02-10.49,4.68-10.5,10.47l-0.02,22.51"/>
			<path class="st2" d="M270.9,492.39h-2.1l0.02-23.2c0-2.52-0.98-4.89-2.76-6.67c-1.77-1.78-4.13-2.76-6.66-2.76
				c-0.01,0-0.02,0-0.03,0c-5.19,0-9.41,4.22-9.43,9.42l-0.02,22.51h-2.1l0.02-22.51c0.02-6.36,5.18-11.52,11.52-11.52
				c0.01,0,0.02,0,0.03,0c3.09,0,5.98,1.2,8.14,3.38c2.17,2.18,3.37,5.07,3.37,8.15L270.9,492.39z"/>
		</g>
		<g>
			<path class="st12" d="M435.22,469.34l-0.02,22.51c-6.29,0.5-13.57-0.6-20.95,0.67l0.02-23.2c0-2.89,1.17-5.52,3.07-7.42
				c1.9-1.9,4.51-3.07,7.42-3.07C430.54,458.85,435.23,463.55,435.22,469.34z"/>
			<path class="st2" d="M413.2,493.77l0.02-24.45c0-3.08,1.2-5.98,3.38-8.16c2.18-2.18,5.07-3.38,8.16-3.38
				c3.08,0.01,5.98,1.21,8.15,3.4c2.18,2.18,3.37,5.08,3.36,8.16l-0.02,23.48l-0.96,0.08c-2.57,0.21-5.24,0.15-8.07,0.09
				c-4.16-0.09-8.46-0.18-12.79,0.57L413.2,493.77z M424.75,459.88c-2.52,0-4.89,0.98-6.67,2.76c-1.78,1.78-2.76,4.15-2.76,6.67
				l-0.02,21.98c4.1-0.57,8.09-0.49,11.96-0.41c2.41,0.05,4.71,0.1,6.89-0.02l0.02-21.54c0.01-2.52-0.97-4.89-2.75-6.67
				C429.64,460.88,427.27,459.89,424.75,459.88z"/>
		</g>
		<g>
			<path class="st2" d="M269.86,497.63C269.85,497.63,269.85,497.63,269.86,497.63c-2.9,0-5.24-2.35-5.24-5.25l0.02-23.2
				c0-1.4-0.54-2.72-1.53-3.7c-0.99-1-2.29-1.53-3.69-1.53c-0.01,0-0.01,0-0.02,0c-2.89,0-5.24,2.35-5.24,5.24l-0.02,22.5
				c0,2.89-2.35,5.24-5.24,5.24c0,0,0,0,0,0c-2.89,0-5.24-2.35-5.24-5.25l0.02-22.51c0.03-8.67,7.07-15.71,15.71-15.71
				c0.02,0,0.03,0,0.05,0c4.2,0,8.15,1.64,11.11,4.62c2.96,2.96,4.59,6.91,4.59,11.11l-0.02,23.21
				C275.1,495.28,272.75,497.63,269.86,497.63z"/>
		</g>
		<g>
			<path class="st2" d="M409,498.75l0.02-29.43c0-4.2,1.64-8.15,4.61-11.12c2.97-2.97,6.92-4.61,11.12-4.61
				c4.21,0.01,8.16,1.65,11.12,4.63c2.97,2.98,4.6,6.93,4.59,11.13l-0.02,27.35l-4.82,0.39c-2.78,0.22-5.68,0.16-8.49,0.1
				c-3.96-0.08-8.05-0.17-11.99,0.51L409,498.75z M435.2,491.85h0.02H435.2z M423.14,486.64c1.45,0,2.86,0.03,4.2,0.06
				c0.89,0.02,1.76,0.04,2.62,0.05l0.01-17.42c0-1.39-0.54-2.71-1.53-3.7c-0.99-0.99-2.31-1.54-3.71-1.55
				c-1.39,0-2.7,0.54-3.69,1.53c-0.99,0.99-1.54,2.31-1.54,3.71l-0.01,17.39C420.73,486.66,421.95,486.64,423.14,486.64z"/>
		</g>
		<g>
			<path class="st2" d="M392.43,554.15c-4.75-6.66-7.89-14.4-9.1-22.51c-1.08-8.09-0.64-16.63,2.66-24.7
				c0.38-1.01,0.8-2.01,1.34-2.98c0.52-0.97,1.01-1.96,1.58-2.91c1.27-1.85,2.48-3.73,4.1-5.37c1.45-1.76,3.32-3.15,5.09-4.62
				c1.95-1.21,3.92-2.53,5.99-3.38c4.14-1.82,8.56-2.76,12.7-3.11c4.13-0.37,8.01-0.23,11.51-0.16c3.49,0.12,6.62,0.16,8.88-0.32
				c1.13-0.23,2.01-0.55,2.74-0.97c0.37-0.2,0.72-0.46,1.09-0.85c0.34-0.38,0.83-0.6,1.12-1.07c2.76-3.11,4.05-9.09,3.96-15.33
				c-0.12-6.31-1.28-12.95-2.99-19.49c-0.86-3.27-1.62-6.61-2.07-10.12c-0.24-1.75-0.45-3.53-0.49-5.39
				c-0.08-1.86-0.11-3.75,0.17-5.81l0.01-0.05c0.1-0.7,0.74-1.18,1.43-1.09c0.21,0.03,0.41,0.11,0.58,0.23
				c3.34,2.43,5.77,5.39,7.81,8.55c2.02,3.17,3.56,6.59,4.68,10.16c2.23,7.14,3.98,14.55,4.53,22.48c0.16,4,0.21,8.09-0.71,12.41
				c-0.9,4.25-2.45,8.82-5.75,12.74c-0.72,1.02-1.74,1.83-2.63,2.72c-0.88,0.88-1.94,1.71-3.11,2.43c-2.3,1.44-4.82,2.36-7.16,2.91
				c-4.72,1.06-8.78,0.94-12.4,0.95c-7.25-0.2-13.06-0.1-17.82,2.08c-1.24,0.5-2.18,1.29-3.3,1.86c-0.94,0.84-2.02,1.49-2.83,2.51
				c-0.95,0.86-1.64,2.01-2.44,3.05c-0.35,0.57-0.65,1.19-0.99,1.77c-0.36,0.57-0.64,1.21-0.88,1.87
				c-2.23,5.11-2.98,11.24-2.4,17.25c0.32,3,0.85,6.03,1.85,8.91c0.84,2.95,2.22,5.67,3.68,8.34l0.19,0.34
				c1.66,3.05,0.54,6.87-2.5,8.53C397.74,557.56,394.25,556.71,392.43,554.15z"/>
		</g>
		<g>
			<path class="st2" d="M281.26,547.04c1.46-2.68,2.84-5.4,3.68-8.34c1-2.88,1.54-5.9,1.85-8.91c0.58-6.01-0.17-12.14-2.4-17.25
				c-0.25-0.66-0.52-1.3-0.88-1.87c-0.34-0.59-0.64-1.2-0.99-1.77c-0.8-1.05-1.5-2.19-2.44-3.05c-0.81-1.02-1.9-1.67-2.83-2.51
				c-1.13-0.57-2.06-1.36-3.3-1.86c-4.76-2.18-10.56-2.28-17.82-2.08c-3.62-0.01-7.68,0.11-12.4-0.95
				c-2.34-0.54-4.85-1.46-7.16-2.91c-1.17-0.71-2.23-1.55-3.11-2.43c-0.89-0.89-1.91-1.71-2.63-2.72c-3.3-3.92-4.85-8.49-5.75-12.74
				c-0.92-4.32-0.87-8.41-0.71-12.41c0.55-7.93,2.3-15.34,4.53-22.48c1.12-3.57,2.66-6.98,4.68-10.16c2.04-3.16,4.48-6.12,7.81-8.55
				c0.57-0.41,1.36-0.29,1.78,0.28c0.13,0.17,0.2,0.37,0.23,0.57l0.01,0.06c0.28,2.07,0.25,3.96,0.17,5.81
				c-0.04,1.87-0.26,3.64-0.49,5.39c-0.44,3.51-1.2,6.84-2.07,10.12c-1.71,6.54-2.87,13.18-2.99,19.49
				c-0.08,6.24,1.2,12.22,3.96,15.33c0.29,0.46,0.78,0.68,1.12,1.07c0.37,0.39,0.72,0.65,1.09,0.85c0.74,0.42,1.61,0.74,2.74,0.97
				c2.26,0.47,5.4,0.43,8.88,0.32c3.49-0.07,7.37-0.21,11.51,0.16c4.14,0.35,8.56,1.29,12.7,3.11c2.07,0.86,4.04,2.17,5.99,3.38
				c1.77,1.47,3.64,2.86,5.09,4.62c1.62,1.63,2.83,3.52,4.1,5.37c0.57,0.95,1.06,1.94,1.58,2.91c0.55,0.97,0.97,1.97,1.34,2.98
				c3.31,8.07,3.74,16.61,2.66,24.7c-1.2,8.1-4.35,15.85-9.1,22.51c-2.02,2.83-5.94,3.48-8.77,1.47c-2.62-1.87-3.37-5.38-1.87-8.13
				L281.26,547.04z"/>
		</g>
		<g>
			<path class="st2" d="M343.19,558.45c-16.36,0.03-32.97-0.28-49.23-0.88c-2.66-0.1-5.31-0.2-7.94-0.32
				c-3.18-0.13-6.35-0.28-9.51-0.44l-7.78-0.4c-6.54-0.36-13.29-0.79-20.08-1.3c-1.56-0.1-3.17-0.23-4.78-0.35l-0.51-0.04
				c-1.45-0.1-2.93-0.22-4.4-0.34c-17.15-1.39-33.6-3.1-48.91-5.07c-4.2-0.54-8.36-1.11-12.44-1.69l-2.95-0.42l-1.67-2.47
				c-11.02-16.28-15.5-37.02-13.32-61.66c0.99-11.26,3.19-22.66,6.55-33.88c21.79-72.86,91-123.71,168.33-123.71
				c0.06,0,0.1,0,0.16,0l14.98,0.01c77.4,0.07,146.59,51.07,168.27,124.02c3.33,11.22,5.52,22.62,6.49,33.89
				c2.13,24.62-2.37,45.34-13.38,61.58l-1.67,2.46l-2.94,0.42c-5.61,0.8-11.47,1.56-17.9,2.35l-1.88,0.22
				c-15.54,1.87-32.24,3.45-49.6,4.71c-0.57,0.05-1.22,0.09-1.87,0.12c-6.47,0.46-13.2,0.89-19.92,1.26
				c-5.73,0.31-11.51,0.58-17.36,0.81C380.14,558.08,361.73,558.45,343.19,558.45z M182.52,534.77c3.05,0.42,6.13,0.84,9.24,1.24
				c15.11,1.95,31.34,3.63,48.26,5c1.44,0.11,2.87,0.23,4.32,0.33l0.55,0.04c1.57,0.12,3.14,0.24,4.71,0.34
				c6.75,0.5,13.42,0.94,19.85,1.29l7.73,0.4c3.12,0.15,6.26,0.3,9.43,0.43c2.63,0.12,5.24,0.22,7.86,0.32
				c16.08,0.59,32.49,0.85,48.72,0.87c18.36,0,36.59-0.36,54.19-1.08c5.8-0.24,11.52-0.5,17.18-0.8c6.63-0.36,13.29-0.78,19.79-1.25
				c0.63-0.04,1.15-0.07,1.68-0.11c17.22-1.25,33.72-2.81,49.1-4.66l1.89-0.23c5.12-0.62,9.91-1.25,14.51-1.88
				c8.08-13.28,11.29-30.23,9.54-50.44c-0.89-10.36-2.91-20.87-5.98-31.22c-20-67.3-83.91-114.35-155.42-114.42l-14.98-0.01
				c-0.05,0-0.1,0-0.15,0c-71.45,0-135.37,46.91-155.48,114.14c-3.1,10.35-5.13,20.86-6.04,31.21
				C171.24,504.49,174.44,521.46,182.52,534.77z M505.51,541.24h0.02H505.51z"/>
		</g>
		<g>
			<path class="st0" d="M524.8,289.25l-1.53,0.07c-1.93,0.09-3.56-1.41-3.64-3.33L515,181.49c-0.09-1.93,1.41-3.56,3.33-3.64
				l1.53-0.07c20.2-0.9,37.3,14.75,38.19,34.95l1.7,38.33C560.65,271.25,545,288.35,524.8,289.25z"/>
			<path class="st2" d="M523.11,290.37c-1.14,0-2.21-0.42-3.06-1.19c-0.89-0.82-1.42-1.94-1.47-3.15l-4.64-104.5
				c-0.11-2.5,1.83-4.62,4.33-4.73l1.53-0.07c10.05-0.45,19.67,3.05,27.09,9.84c7.42,6.79,11.75,16.06,12.2,26.11l1.7,38.33
				c0.45,10.05-3.05,19.67-9.84,27.09c-6.79,7.42-16.06,11.75-26.11,12.2l-1.52,0.07C523.25,290.37,523.18,290.37,523.11,290.37z
				 M521.52,178.79c-0.54,0-1.08,0.01-1.62,0.03l-1.52,0.07c-1.34,0.06-2.39,1.2-2.33,2.55l4.64,104.5
				c0.03,0.65,0.31,1.25,0.79,1.69c0.48,0.44,1.13,0.64,1.76,0.64l1.53-0.07c9.49-0.42,18.25-4.51,24.66-11.52
				s9.71-16.09,9.29-25.58l-1.7-38.33c-0.42-9.49-4.51-18.25-11.52-24.66C538.87,182.07,530.42,178.79,521.52,178.79z"/>
		</g>
		<g class="st1">
			<path class="st2" d="M558.95,233l0.74,16.67c0.93,20.96-15.31,38.71-36.29,39.65c-2,0.09-3.69-1.47-3.78-3.47l-1.24-27.71
				c0.62,1.24,1.92,2.05,3.39,2l2.47-0.12C540.82,259.3,554.44,248.05,558.95,233z"/>
		</g>
		<g>
			<path class="st2" d="M523.11,296.03c-2.55,0-4.98-0.94-6.87-2.67c-2.01-1.84-3.18-4.35-3.31-7.07l-4.64-104.5
				c-0.25-5.62,4.12-10.39,9.74-10.64l1.53-0.07c11.58-0.5,22.63,3.51,31.16,11.32c8.54,7.81,13.52,18.48,14.03,30.04l1.7,38.33
				c0.51,11.56-3.51,22.62-11.32,31.16c-7.81,8.54-18.48,13.52-30.04,14.03l-1.52,0.07C523.42,296.03,523.26,296.03,523.11,296.03z
				 M521.85,184.45l4.35,97.97c7.32-0.73,14.03-4.09,19.04-9.56c5.39-5.89,8.16-13.53,7.81-21.51l-1.7-38.33
				c-0.35-7.98-3.79-15.34-9.69-20.73C536.19,187.28,529.21,184.54,521.85,184.45z"/>
		</g>
		<g>
			<path class="st0" d="M173.02,193.17l1.53-0.07c1.93-0.09,3.56,1.41,3.64,3.33l4.64,104.5c0.09,1.93-1.41,3.56-3.33,3.64
				l-1.53,0.07c-20.2,0.9-37.3-14.75-38.19-34.95l-1.7-38.33C137.17,211.16,152.82,194.06,173.02,193.17z"/>
			<path class="st2" d="M176.3,305.72c-9.43,0-18.38-3.47-25.38-9.87c-7.42-6.79-11.75-16.06-12.2-26.11l-1.7-38.33
				c-0.92-20.74,15.21-38.37,35.95-39.29l1.53-0.07c1.2-0.02,2.37,0.37,3.26,1.19c0.89,0.82,1.42,1.94,1.47,3.15l4.64,104.5
				c0.05,1.21-0.37,2.37-1.19,3.26c-0.82,0.89-1.94,1.42-3.15,1.47l-1.53,0.07C177.44,305.71,176.87,305.72,176.3,305.72z
				 M173.06,194.21c-19.59,0.87-34.82,17.51-33.95,37.1l1.7,38.33c0.42,9.49,4.51,18.25,11.52,24.66
				c7.01,6.41,16.08,9.66,25.58,9.29l1.53-0.07c0.65-0.03,1.25-0.31,1.69-0.79c0.44-0.48,0.67-1.1,0.64-1.76l-4.64-104.5
				c-0.03-0.65-0.31-1.25-0.79-1.69c-0.48-0.44-1.11-0.63-1.76-0.64L173.06,194.21z"/>
		</g>
		<g class="st1">
			<path class="st2" d="M181.54,271.88l1.28,28.92c0.09,2-1.47,3.69-3.47,3.78c-11,0.48-21.13-3.76-28.4-10.94
				c-6.56-6.49-10.79-15.38-11.24-25.33l-0.67-14.98c6.53,12.88,20.2,21.44,35.57,20.76l3.8-0.17
				C179.81,273.86,180.96,273.04,181.54,271.88z"/>
		</g>
		<g>
			<path class="st2" d="M176.29,311.39c-10.84,0-21.14-3.99-29.19-11.36c-8.54-7.81-13.52-18.48-14.03-30.04l-1.7-38.33
				c-1.06-23.86,17.49-44.14,41.35-45.2l1.53-0.07c2.73-0.1,5.33,0.83,7.34,2.67c2.01,1.84,3.18,4.35,3.3,7.07l4.64,104.5
				c0.12,2.72-0.83,5.33-2.67,7.34c-1.84,2.01-4.35,3.18-7.08,3.3l-1.52,0.07C177.6,311.37,176.94,311.39,176.29,311.39z
				 M171.62,199.99c-15.65,1.58-27.56,15.17-26.85,31.07l1.7,38.33c0.35,7.98,3.79,15.34,9.69,20.73
				c5.47,5.01,12.45,7.76,19.81,7.84L171.62,199.99z"/>
		</g>
		<g class="st1">
			<path class="st2" d="M477.16,389.52c-33.45,34.83-80.89,55.98-132.97,54.59c-52.31-1.39-98.73-25.23-130.28-62.07
				c31.2-31.27,74.52-49.86,120.79-49.83l14.98,0.02C399.42,332.28,445.7,353.85,477.16,389.52z"/>
		</g>
		<g>
			<circle class="st0" cx="348.93" cy="241.21" r="177.8"/>
			<path class="st2" d="M349,420.06c-1.61,0-3.22-0.02-4.83-0.06c-98.58-2.63-176.65-84.97-174.02-183.55
				c1.27-47.75,21.07-92.16,55.73-125.02c34.67-32.87,80.07-50.23,127.81-48.99c47.76,1.27,92.16,21.07,125.02,55.73
				c32.87,34.67,50.27,80.06,49,127.82C525.13,342.94,445.42,420.06,349,420.06z M348.81,64.46c-45.42,0-88.39,17.11-121.48,48.49
				c-34.26,32.48-53.82,76.36-55.08,123.56c-2.6,97.43,74.55,178.8,171.98,181.4c1.59,0.04,3.19,0.06,4.78,0.06
				c95.3,0,174.07-76.21,176.62-172.04c1.26-47.2-15.94-92.05-48.42-126.32c-32.48-34.26-76.36-53.82-123.56-55.08
				C352.03,64.48,350.41,64.46,348.81,64.46z"/>
		</g>
		<g>
			<path class="st2" d="M349,425.72c-1.66,0-3.32-0.02-4.99-0.07c-101.7-2.71-182.24-87.66-179.53-189.36
				c1.31-49.27,21.73-95.07,57.5-128.98c35.77-33.91,82.57-51.84,131.86-50.55c49.27,1.31,95.07,21.73,128.98,57.5
				c33.91,35.76,51.86,82.59,50.55,131.86C530.71,346.16,448.47,425.72,349,425.72z M348.81,70.12
				c-43.96,0-85.56,16.56-117.59,46.93c-33.16,31.44-52.1,73.92-53.32,119.6c-2.51,94.3,72.16,173.07,166.47,175.59
				c1.54,0.04,3.09,0.06,4.62,0.06c92.25,0.01,168.49-73.77,170.96-166.53c1.22-45.68-15.43-89.11-46.87-122.27
				c-31.44-33.16-73.92-52.1-119.6-53.31C351.93,70.14,350.37,70.12,348.81,70.12z"/>
		</g>
		<g class="st1">
			<path class="st2" d="M525.62,221.3c0.92,8.07,1.27,16.29,1.05,24.65c-2.63,98.16-84.32,175.61-182.48,173
				c-98.16-2.63-175.61-84.32-173-182.48c0.07-2.82,0.21-5.65,0.42-8.42c9.68,86.84,82.14,155.43,171.95,157.83
				C438.9,388.41,518.69,315.43,525.62,221.3z"/>
		</g>
		<g>
			<path class="st2" d="M349,425.72c-1.66,0-3.32-0.02-4.99-0.07c-101.7-2.71-182.24-87.66-179.53-189.36
				c1.31-49.27,21.73-95.07,57.5-128.98c35.77-33.91,82.57-51.84,131.86-50.55c49.27,1.31,95.07,21.73,128.98,57.5
				c33.91,35.76,51.86,82.59,50.55,131.86C530.71,346.16,448.47,425.72,349,425.72z M348.81,70.12
				c-43.96,0-85.56,16.56-117.59,46.93c-33.16,31.44-52.1,73.92-53.32,119.6c-2.51,94.3,72.16,173.07,166.47,175.59
				c1.54,0.04,3.09,0.06,4.62,0.06c92.25,0.01,168.49-73.77,170.96-166.53c1.22-45.68-15.43-89.11-46.87-122.27
				c-31.44-33.16-73.92-52.1-119.6-53.31C351.93,70.14,350.37,70.12,348.81,70.12z"/>
		</g>
		<g>
			<path class="st2" d="M490.37,297.52c-8.01,32.65-30.85,60.11-62.61,74.23c-23.92,10.65-56.59,18.72-97.02,13.62l-0.06-0.01
				c-40.43-5.11-70.07-21.08-90.6-37.32c-27.27-21.59-42.6-53.87-42.22-87.49c0.38-33.93,9.34-80.3,48.19-115.77
				c49.37-45.04,119.31-33.81,119.31-33.81s70.53,6.52,107.14,62.42C501.31,217.41,498.47,264.58,490.37,297.52z"/>
		</g>
		<g>
			<path class="st2" d="M355.52,393.66c-8.43,0-16.97-0.54-25.61-1.63l-0.28-0.04c-35.45-4.52-66.98-17.54-93.72-38.69
				c-28.86-22.85-45.17-56.68-44.77-92.82c0.39-34.41,9.44-83.28,50.38-120.65c50.26-45.86,119.41-36.32,124.67-35.51
				c5.31,0.53,74.64,8.49,111.92,65.4c30.4,46.43,26.99,96,18.78,129.41c-8.62,35.13-32.82,63.83-66.41,78.75
				C406.9,388.38,381.78,393.66,355.52,393.66z M331.79,378.74c33.05,4.13,64.42-0.29,93.24-13.12
				c29.76-13.23,51.2-38.63,58.83-69.7l0,0c7.57-30.82,10.78-76.46-16.98-118.86c-34.34-52.43-101.48-59.35-102.15-59.41l-0.44-0.06
				c-0.66-0.1-67.42-10.1-113.72,32.14c-37.38,34.12-45.65,79.13-46,110.89c-0.36,31.96,14.1,61.9,39.68,82.15
				c24.84,19.66,54.21,31.75,87.28,35.93L331.79,378.74z"/>
		</g>
		<g class="st1">
			<path class="st0" d="M219.55,229.18c-2.46-20.23,10.68-54.37,37.58-72.8c38.29-26.24,69.54-23.99,76.72-18.49
				c11.93,9.13,6.23,33.75-29.37,49.38c-28.6,12.55-43.85,39.45-51.93,48.33C244.47,244.47,222.01,249.41,219.55,229.18z"/>
			<path class="st2" d="M234.53,248.56c-2.34,0-4.66-0.32-6.87-1.03c-4.33-1.38-11.83-5.52-13.31-17.72
				c-2.72-22.4,11.72-58.5,39.82-77.76c39.82-27.29,73.62-25.41,82.87-18.33c5.72,4.38,8.46,11.37,7.52,19.18
				c-1.79,14.87-15.99,29.51-37.97,39.16c-21.33,9.36-34.81,27.19-43.73,38.98c-2.45,3.24-4.56,6.03-6.42,8.08
				C251.65,244.37,242.98,248.56,234.53,248.56z M317.93,139.68c-12.65,0-33.35,4.24-57.84,21.02
				c-26.25,17.99-37.39,50.96-35.34,67.84c0.6,4.94,2.59,7.89,6.09,9c5.7,1.81,14.11-1.4,17.83-5.49c1.54-1.7,3.52-4.31,5.82-7.35
				c9-11.89,24.05-31.8,47.88-42.26c21.85-9.59,30.74-22.21,31.78-30.82c0.49-4.09-0.74-7.5-3.48-9.6
				C329.15,140.89,324.69,139.68,317.93,139.68z"/>
		</g>
		<g class="st1">
			<path class="st0" d="M358.77,137.72c9.18-8.44,27.47-9.61,43.74-4.54c26.24,8.18,29.36,26.24,27.85,31.32
				c-2.23,7.53-14.08,14.4-33.31,6.87c-15.2-5.96-26.72-9.03-32.99-8.96C351.2,162.54,350.93,144.92,358.77,137.72z"/>
			<path class="st2" d="M412.62,179.86c-5.41,0-11.34-1.21-17.48-3.61c-20.01-7.84-28.3-8.64-31.03-8.6c-0.06,0-0.13,0-0.19,0
				c-6.68,0-11.89-3.48-14.3-9.58c-3.1-7.84-0.64-18.48,5.61-24.21h0c10.17-9.34,29.8-11.62,48.84-5.68
				c27.5,8.58,33.97,28.86,31.32,37.82c-1.37,4.63-5.04,8.7-10.05,11.15C421.62,178.96,417.31,179.86,412.62,179.86z M364.24,157.16
				c9.02,0,23.84,5.06,34.72,9.32c11.73,4.6,18.67,2.75,21.77,1.23c2.38-1.17,4.06-2.88,4.6-4.7c0.61-2.07-0.78-17.47-24.39-24.83
				c-15.11-4.71-31.36-3.28-38.63,3.39c-3.1,2.85-4.48,8.76-2.95,12.63c0.82,2.07,2.25,2.97,4.64,2.95
				C364.09,157.16,364.16,157.16,364.24,157.16z"/>
		</g>
	</g>
	<g>
		<defs>
			<path id="SVGID_1_" d="M485.58,297.75c-8.01,32.65-30.85,60.11-62.61,74.23c-23.92,10.65-56.59,18.72-97.02,13.62l-0.06-0.01
				c-40.43-5.11-70.07-21.08-90.6-37.32c-27.27-21.59-42.6-53.87-42.22-87.49c0.38-33.93,9.34-80.3,48.19-115.77
				c49.37-45.04,119.31-33.81,119.31-33.81s70.53,6.52,107.14,62.42C496.52,217.64,493.67,264.81,485.58,297.75z"/>
		</defs>
		<clipPath id="SVGID_00000067223247596150250030000010520102021062352271_">
			<use xlink:href="#SVGID_1_"  style="overflow:visible;"/>
		</clipPath>
		<g style="clip-path:url(#SVGID_00000067223247596150250030000010520102021062352271_);">
			<defs>
				<path id="SVGID_00000049206829044922832000000017917346338905538738_" d="M601.24,200.05c0,115.44-117.3,209.03-261.99,209.03
					c-144.69,0-261.99-93.58-261.99-209.03c0-115.44,117.3-209.03,261.99-209.03C483.94-8.98,601.24,84.61,601.24,200.05"/>
			</defs>
			<clipPath id="SVGID_00000059278456024620424860000016738398839471311751_">
				<use xlink:href="#SVGID_00000049206829044922832000000017917346338905538738_"  style="overflow:visible;"/>
			</clipPath>
			<path style="clip-path:url(#SVGID_00000059278456024620424860000016738398839471311751_);fill:#F57E2C;" d="M541.09,132.2
				l-33.24,105.14c1.24,7.96,2.34,15.36,3.26,22.28c8.87,66.81,0.75,88.62-60.15,126.75c4.61,6.62,8.5,13.41,11.74,20.34
				c6.14,13.11,9.94,26.77,11.71,40.89c2.44,19.37,1.1,39.6-3.19,60.54c8.83,5.21,16.35,11.46,22.91,18.46
				c8.23,8.77,10.22,21.65,5.25,32.59c-6.06,13.3-12.34,25.61-18.99,36.36c17.04,24.56-5.9,51.9-31.45,66.7h-0.01
				c-10.82,6.28-22.11,10.29-31.03,10.89c-4.17,0.29-8.17-1.72-10.55-5.16l-5.07-7.3c-43.36-10.78-85.75-10.53-127.18,0l-5.07,7.3
				c-2.38,3.44-6.38,5.45-10.55,5.16c-5.12-0.35-11.02-1.82-17.17-4.2c-29.85-11.54-65.44-44.41-45.33-73.39
				c-6.65-10.75-12.94-23.06-18.99-36.36c-4.97-10.94-2.98-23.82,5.25-32.59c6.56-7,14.08-13.24,22.91-18.46
				c-4.73-23.06,13.65-79.76,3.47-129.52c-3.42-16.74-37.85-25.04-40.23-41.27c-4.14-28.15-6.09-54.2-3.67-73.52
				c1-8.1,2.3-16.89,3.8-26.49L136.22,132.2c-8.8-27.85,15.71-54.85,44.29-48.78l93.39,19.88c43.18-19.74,86.34-19.74,129.52,0
				l93.39-19.88C525.39,77.35,549.9,104.35,541.09,132.2"/>
			<path style="clip-path:url(#SVGID_00000059278456024620424860000016738398839471311751_);fill:#FCC095;" d="M403.42,117.51
				c-21.59-9.87-43.18-14.81-64.76-14.81c-21.59,0-43.17,4.94-64.76,14.81l-93.39-19.88c-2.76-0.59-5.48-0.87-8.13-0.87
				c-14.13,0-26.44,7.9-32.97,19.34c0.9-6.53,3.76-12.74,8.41-17.86c6.46-7.11,15.32-10.98,24.61-10.98c2.35,0,4.73,0.25,7.11,0.75
				l93.39,19.88c0.32,0.07,0.65,0.1,0.97,0.1c0.67,0,1.33-0.14,1.94-0.42c20.84-9.53,41.83-14.29,62.82-14.29
				c20.99,0,41.98,4.77,62.82,14.29c0.61,0.28,1.28,0.42,1.94,0.42c0.33,0,0.65-0.03,0.97-0.1L497.79,88
				c2.38-0.51,4.76-0.75,7.11-0.75c9.3,0,18.15,3.87,24.61,10.98c4.65,5.13,7.51,11.33,8.41,17.86
				c-6.54-11.44-18.85-19.34-32.97-19.34c-2.66,0-5.38,0.28-8.13,0.87L403.42,117.51"/>
			<path style="clip-path:url(#SVGID_00000059278456024620424860000016738398839471311751_);fill:#1B1B1C;" d="M319.36,89.99
				c13.63,49.79,26.41,60.56,37.63,0"/>
			<path style="clip-path:url(#SVGID_00000059278456024620424860000016738398839471311751_);fill:#1B1B1C;" d="M269.32,106.92
				c13.27,29.49,24.32,31.28,31.63-13.39"/>
			<path style="clip-path:url(#SVGID_00000059278456024620424860000016738398839471311751_);fill:#1B1B1C;" d="M411.29,106.92
				c-13.27,29.49-24.32,31.28-31.63-13.39"/>
			<path style="clip-path:url(#SVGID_00000059278456024620424860000016738398839471311751_);fill:#FFFFFF;" d="M377.93,389.58
				c39.62,1.05,63.12-26.85,56.66-53.01c-4.53-18.36-18.89-32.56-36.89-38.36c-0.17-0.05-0.33-0.11-0.5-0.16
				c-12.03-3.93-22.46-11.62-30.06-21.74c-3.68-4.9-7.83-9.12-12.7-12.29c-8.97-5.83-20.43-5.83-29.4,0
				c-4.87,3.16-9.01,7.38-12.7,12.29c-7.6,10.12-18.03,17.81-30.06,21.74c-0.17,0.05-0.33,0.11-0.5,0.16
				c-18.01,5.8-32.36,19.99-36.89,38.36c-6.45,26.16,17.05,54.06,56.66,53.01H377.93"/>
			<path style="clip-path:url(#SVGID_00000059278456024620424860000016738398839471311751_);fill:#C5705F;" d="M330.27,408.96
				c-35.86-0.96-69.89-7.67-100.69-19.02c0.21-0.3,0.41-0.6,0.62-0.9c0.73-1.05,1-2.35,0.74-3.61c-0.26-1.25-1.02-2.35-2.1-3.02
				c-51.58-32.3-64.04-51.53-60.35-100.36c9.41,29.2,38.22,50.07,75.35,62.62c-0.38,23.02,21.27,44.94,55.56,44.94
				c0.71,0,1.43-0.01,2.16-0.03h76.37c0.72,0.02,1.45,0.03,2.16,0.03c35.11,0,56.96-22.97,55.5-46.58
				c37.86-13.79,66.2-36.58,72.6-68.36c5.46,54.36-5.6,73.86-59.7,107.74c-1.08,0.68-1.84,1.77-2.1,3.02
				c-0.26,1.25,0.01,2.56,0.74,3.61c0.29,0.41,0.57,0.83,0.86,1.25c-1.13,0.41-2.27,0.82-3.41,1.22c-3.74,0.4-6.89,1.6-9.53,3.16
				c-26.8,8.4-55.76,13.39-86.03,14.27c-3.04-0.33-6.14-0.5-9.27-0.5C336.54,408.43,333.38,408.61,330.27,408.96"/>
			<path style="clip-path:url(#SVGID_00000059278456024620424860000016738398839471311751_);fill:#C0BCDE;" d="M380.09,389.61
				c-0.71,0-1.44-0.01-2.16-0.03h-76.37c-0.73,0.02-1.44,0.03-2.16,0.03c-34.29,0-55.94-21.92-55.56-44.94
				c28.01,9.47,60.78,14.21,93.53,14.21c34.61,0,69.19-5.28,98.21-15.85C437.04,366.64,415.19,389.61,380.09,389.61"/>
			<path style="clip-path:url(#SVGID_00000059278456024620424860000016738398839471311751_);fill:#A66775;" d="M339.25,409.08
				c-3,0-6-0.04-8.98-0.12c3.11-0.35,6.27-0.53,9.47-0.53c3.13,0,6.23,0.17,9.27,0.5C345.78,409.03,342.52,409.08,339.25,409.08"/>
			<path style="clip-path:url(#SVGID_00000059278456024620424860000016738398839471311751_);fill:#1B1B1C;" d="M338.3,648.04
				c21.63,0,43.37,2.69,65.08,8.08c1.1,0.27,2.07,0.94,2.72,1.88l5.07,7.3c1.47,2.12,3.93,3.32,6.39,3.16
				c19.1-1.3,50.4-20.02,60.63-41.31c5.01-10.42,4.45-20.16-1.65-28.95c-1.06-1.53-1.11-3.54-0.14-5.12
				c6.12-9.91,12.25-21.64,18.71-35.85c4.24-9.31,2.51-20.09-4.39-27.46c-6.64-7.08-13.79-12.84-21.88-17.63
				c-1.72-1.02-2.6-3.01-2.2-4.96c9.6-46.82,3.21-85.46-19.52-118.15c-0.73-1.05-1-2.35-0.74-3.61c0.26-1.25,1.01-2.35,2.1-3.02
				c64.78-40.56,67.85-60.52,54.75-144.34c-0.11-0.71-0.06-1.44,0.16-2.13l33.25-105.14c3.63-11.48,0.97-23.65-7.12-32.56
				c-8.09-8.91-19.95-12.74-31.72-10.23l-93.39,19.88c-0.98,0.21-2,0.1-2.92-0.32c-41.69-19.06-83.96-19.06-125.64,0
				c-0.91,0.42-1.94,0.53-2.92,0.32L179.53,88c-11.77-2.5-23.63,1.32-31.72,10.23c-8.09,8.91-10.75,21.08-7.12,32.56l33.25,105.14
				c0.22,0.69,0.27,1.42,0.16,2.13c-13.1,83.83-10.03,103.79,54.75,144.34c1.08,0.68,1.84,1.77,2.1,3.02
				c0.26,1.25-0.01,2.56-0.74,3.61c-22.73,32.69-29.11,71.33-19.52,118.15c0.4,1.95-0.48,3.95-2.2,4.96
				c-8.09,4.78-15.24,10.55-21.88,17.63c-6.91,7.37-8.63,18.15-4.39,27.46c6.47,14.22,12.59,25.94,18.71,35.85
				c0.98,1.58,0.93,3.59-0.14,5.12c-6.1,8.8-6.66,18.54-1.65,28.95c10.23,21.28,41.53,40,60.63,41.31c2.47,0.16,4.92-1.04,6.39-3.16
				l5.07-7.3c0.64-0.93,1.6-1.59,2.69-1.87C295.16,650.74,316.67,648.04,338.3,648.04 M260.21,677.83c-0.36,0-0.72-0.01-1.09-0.04
				c-22.47-1.54-56.5-21.78-68.42-46.58c-6-12.48-5.73-24.77,0.73-35.73c-5.82-9.69-11.64-20.97-17.74-34.37
				c-5.81-12.77-3.42-27.58,6.08-37.72c6.47-6.9,13.39-12.66,21.1-17.54c-8.83-46.13-2.63-84.85,18.92-118.09
				c-33.78-21.61-49.25-37.68-56.47-58.36c-7.52-21.52-5.47-47.84,1.35-91.69l-32.92-104.09c-4.64-14.69-1.24-30.26,9.12-41.67
				c10.35-11.4,25.52-16.3,40.59-13.09l91.89,19.56c43.33-19.38,87.25-19.38,130.58,0l91.89-19.56
				c15.06-3.21,30.24,1.69,40.59,13.09c10.35,11.4,13.76,26.98,9.12,41.67L512.63,237.7c6.82,43.85,8.87,70.17,1.35,91.69
				c-7.22,20.67-22.68,36.74-56.47,58.36c21.55,33.24,27.75,71.96,18.92,118.09c7.71,4.88,14.64,10.64,21.1,17.54
				c9.51,10.14,11.9,24.95,6.08,37.72c-6.1,13.4-11.91,24.68-17.74,34.37c6.46,10.96,6.73,23.25,0.73,35.73
				c-11.92,24.8-45.95,45.05-68.42,46.58c-5.74,0.38-11.38-2.35-14.71-7.16l-4.06-5.85c-40.78-9.85-81.64-9.86-121.52-0.01
				l-4.07,5.86C270.72,675.13,265.57,677.83,260.21,677.83"/>
			<path style="clip-path:url(#SVGID_00000059278456024620424860000016738398839471311751_);fill:#1B1B1C;" d="M165.2,235.45
				l13.39-23.07c0.49-0.84,1.57-1.13,2.41-0.64c0.73,0.42,1.04,1.29,0.8,2.06l-8.04,25.43c-0.78,2.48-3.43,3.85-5.9,3.07
				c-2.48-0.78-3.85-3.43-3.07-5.9C164.89,236.07,165.04,235.74,165.2,235.45L165.2,235.45z"/>
			<path style="clip-path:url(#SVGID_00000059278456024620424860000016738398839471311751_);fill:#250F0D;" d="M184.14,188.9
				c11.89-16.25,24.02-31.57,36.4-45.88c1.35-1.56,1-3.93-0.73-5.05c-15.1-9.72-32.4-15.2-51.55-17.12
				c-7.17-0.72-13.02,5.64-11.67,12.73c3.88,20.39,11.04,39.7,22.09,55.31C180.01,190.76,182.79,190.75,184.14,188.9"/>
			<path style="clip-path:url(#SVGID_00000059278456024620424860000016738398839471311751_);fill:#FCC095;" d="M181.4,195.36
				c-1.03,0-2.05-0.46-2.71-1.4c-11.06-15.62-18.21-34.93-22.09-55.31c-0.3-1.57-0.25-3.1,0.1-4.54c2.51,13,6.36,25.56,11.72,36.98
				c2.33,4.97,4.94,9.73,7.85,14.22c0.78,1.21,1.59,2.4,2.42,3.57c0.66,0.94,1.69,1.4,2.72,1.4c0.95,0,1.9-0.39,2.57-1.17
				c0.06-0.07,0.12-0.14,0.17-0.22c1.18-1.61,2.36-3.21,3.54-4.8c10.66-14.34,21.5-27.93,32.55-40.72c1.35,1.19,1.54,3.29,0.3,4.71
				c-12.38,14.32-24.51,29.63-36.4,45.88C183.47,194.89,182.43,195.36,181.4,195.36"/>
			<path style="clip-path:url(#SVGID_00000059278456024620424860000016738398839471311751_);fill:#847572;" d="M181.4,190.29
				c-1.03,0-2.06-0.46-2.72-1.4c-0.83-1.17-1.63-2.36-2.42-3.57c0.78,1.21,1.59,2.4,2.42,3.57
				C179.35,189.82,180.37,190.29,181.4,190.29c0.95,0,1.9-0.39,2.57-1.17C183.3,189.9,182.35,190.29,181.4,190.29 M187.69,184.1
				c10.66-14.34,21.51-27.94,32.55-40.72c0,0,0,0,0,0C209.19,156.16,198.34,169.76,187.69,184.1 M168.41,171.1
				c-5.35-11.42-9.2-23.98-11.72-36.98c0,0,0-0.01,0-0.01C159.21,147.11,163.06,159.67,168.41,171.1"/>
			<path style="clip-path:url(#SVGID_00000059278456024620424860000016738398839471311751_);fill:#1B1B1C;" d="M503.57,239.23
				l-8.04-25.43c-0.29-0.93,0.22-1.92,1.15-2.21c0.8-0.25,1.65,0.1,2.06,0.8l13.39,23.07c1.3,2.25,0.54,5.12-1.71,6.43
				c-2.25,1.3-5.12,0.54-6.43-1.71C503.81,239.87,503.67,239.54,503.57,239.23L503.57,239.23z"/>
			<path style="clip-path:url(#SVGID_00000059278456024620424860000016738398839471311751_);fill:#250F0D;" d="M493.18,190.47
				c-11.89-16.25-24.02-31.57-36.4-45.88c-1.35-1.56-1-3.93,0.73-5.05c15.1-9.72,32.4-15.2,51.55-17.12
				c7.17-0.72,13.02,5.64,11.67,12.73c-3.88,20.39-11.04,39.7-22.09,55.31C497.31,192.34,494.53,192.32,493.18,190.47"/>
			<path style="clip-path:url(#SVGID_00000059278456024620424860000016738398839471311751_);fill:#FCC095;" d="M497.39,197.69
				c-1.03,0-2.07-0.47-2.75-1.39c-11.89-16.25-24.02-31.57-36.4-45.88c-1.1-1.25-1.08-3.04-0.12-4.27
				c11.92,13.86,23.6,28.66,35.06,44.32c0.68,0.93,1.71,1.39,2.74,1.39c1.03,0,2.06-0.46,2.72-1.4
				c11.05-15.61,18.21-34.92,22.09-55.31c0.1-0.54,0.16-1.08,0.19-1.62c1.26,2.14,1.78,4.74,1.28,7.45
				c-3.88,20.39-11.03,39.69-22.09,55.3C499.44,197.23,498.42,197.69,497.39,197.69"/>
			<path style="clip-path:url(#SVGID_00000059278456024620424860000016738398839471311751_);fill:#847572;" d="M495.92,191.86
				c-1.03,0-2.06-0.47-2.74-1.39c-11.46-15.66-23.14-30.46-35.06-44.32c0.2-0.26,0.45-0.5,0.74-0.7
				c11.67,13.61,23.1,28.11,34.32,43.45c0.68,0.92,1.71,1.39,2.74,1.39c1.03,0,2.06-0.46,2.72-1.4
				c11.06-15.6,18.21-34.93,22.09-55.31c0.01-0.09,0.03-0.18,0.05-0.27c0.05,0.08,0.09,0.15,0.14,0.23
				c-0.02,0.53-0.08,1.07-0.19,1.62c-3.88,20.39-11.04,39.7-22.09,55.31C497.98,191.4,496.95,191.86,495.92,191.86"/>
			<path style="clip-path:url(#SVGID_00000059278456024620424860000016738398839471311751_);fill:#1B1B1C;" d="M276.79,106.98
				l-24.02,15.2c-0.82,0.52-1.91,0.28-2.43-0.55c-0.45-0.72-0.32-1.64,0.26-2.21L271,99.64c1.86-1.81,4.84-1.76,6.65,0.1
				c1.81,1.86,1.76,4.84-0.1,6.65C277.32,106.61,277.05,106.82,276.79,106.98L276.79,106.98z"/>
			<path style="clip-path:url(#SVGID_00000059278456024620424860000016738398839471311751_);fill:#1B1B1C;" d="M406.53,99.64
				l20.4,19.79c0.7,0.68,0.72,1.79,0.04,2.49c-0.59,0.61-1.52,0.7-2.21,0.26l-24.02-15.2c-2.19-1.39-2.85-4.29-1.46-6.49
				c1.39-2.19,4.29-2.85,6.49-1.46C406.05,99.21,406.31,99.42,406.53,99.64L406.53,99.64z"/>
			<path style="clip-path:url(#SVGID_00000059278456024620424860000016738398839471311751_);fill:#F57E2C;" d="M355.82,288.48
				c0,5.33-7.2,7.31-16.07,7.31c-8.88,0-16.07-1.98-16.07-7.31c0-5.33,7.2-9.64,16.07-9.64
				C348.62,278.83,355.82,283.15,355.82,288.48L355.82,288.48z"/>
			<path style="clip-path:url(#SVGID_00000059278456024620424860000016738398839471311751_);fill:#6366AE;" d="M427.37,398.35
				l-25.44,25.96c-3.77,3.84-6.46,8.7-7.3,14.02c-2.2,13.93,7.63,25.26,21.44,27.86c8.43,1.59,17.14-0.64,24.1-5.65l22.27-16.02
				L427.37,398.35L427.37,398.35z"/>
			<path style="clip-path:url(#SVGID_00000059278456024620424860000016738398839471311751_);fill:#5954A4;" d="M427.86,398.83
				c-6.43,10.54-14.35,19.62-22.59,28.38c-3.58,3.76-6.09,8.25-6.58,13.2c-0.59,4.95,0.86,9.98,4.12,13.79
				c3.19,3.87,7.97,6.41,13.02,7.43c5.02,1.1,10.28,0.57,15.16-1.18c1.23-0.43,2.42-0.95,3.58-1.56c1.19-0.59,2.26-1.23,3.44-2
				c2.5-1.67,5-3.34,7.6-4.89c5.18-3.09,10.54-5.94,16.44-8.03c0.37-0.13,0.77,0.06,0.91,0.43c0.08,0.24,0.03,0.49-0.11,0.68
				c-3.86,4.93-8.27,9.1-12.85,13.04c-2.29,1.96-4.67,3.81-7.05,5.64c-2.59,2.03-5.61,3.81-8.78,5.04
				c-6.34,2.51-13.6,3.14-20.29,1.38c-6.64-1.61-12.95-5.24-17.4-10.72c-2.22-2.72-3.95-5.89-5.03-9.28
				c-1.07-3.39-1.46-6.99-1.21-10.5c0.38-7.11,3.86-13.91,8.74-18.64c8.59-8.42,17.51-16.52,27.92-23.15
				c0.33-0.21,0.76-0.11,0.97,0.21C428,398.32,427.99,398.61,427.86,398.83L427.86,398.83z"/>
			<path style="clip-path:url(#SVGID_00000059278456024620424860000016738398839471311751_);fill:#6366AE;" d="M251.79,398.35
				l25.44,25.96c3.77,3.84,6.46,8.7,7.3,14.02c2.2,13.93-7.63,25.26-21.44,27.86c-8.43,1.59-17.14-0.64-24.1-5.65l-22.27-16.02"/>
			<path style="clip-path:url(#SVGID_00000059278456024620424860000016738398839471311751_);fill:#5954A4;" d="M252.27,397.87
				c10.41,6.64,19.33,14.74,27.92,23.15c4.89,4.72,8.37,11.52,8.74,18.64c0.25,3.51-0.15,7.11-1.21,10.5
				c-1.07,3.39-2.8,6.56-5.03,9.28c-4.45,5.48-10.76,9.11-17.4,10.72c-6.69,1.76-13.95,1.14-20.29-1.38c-3.17-1.23-6.19-3-8.78-5.04
				c-2.38-1.84-4.76-3.68-7.05-5.64c-4.58-3.93-8.98-8.11-12.85-13.04c-0.24-0.31-0.19-0.76,0.12-1c0.2-0.16,0.46-0.19,0.68-0.11
				c5.9,2.1,11.26,4.94,16.44,8.03c2.59,1.55,5.09,3.22,7.6,4.89c1.18,0.77,2.25,1.41,3.44,2c1.16,0.61,2.35,1.13,3.58,1.56
				c4.88,1.76,10.14,2.29,15.16,1.18c5.05-1.02,9.83-3.57,13.02-7.43c3.26-3.81,4.71-8.84,4.12-13.79c-0.49-4.95-3-9.44-6.58-13.2
				c-8.24-8.76-16.16-17.84-22.59-28.38c-0.2-0.33-0.1-0.76,0.23-0.96C251.77,397.72,252.06,397.73,252.27,397.87L252.27,397.87z"/>
			<path style="clip-path:url(#SVGID_00000059278456024620424860000016738398839471311751_);fill:#090909;" d="M243.35,215.01
				c2.29-0.77,4.4-1.18,6.46-1.52c2.05-0.32,4.04-0.51,5.97-0.6c3.86-0.16,7.52,0.05,11.01,0.58c7,1.04,13.36,3.26,19.26,6.36
				c5.89,3.11,11.32,7.11,16.11,12.31c2.4,2.58,4.63,5.5,6.66,8.78c1.01,1.65,1.97,3.4,2.86,5.29c0.88,1.91,1.71,3.89,2.36,6.22
				c-2.3,0.78-4.4,1.2-6.48,1.55c-2.06,0.32-4.05,0.52-5.98,0.61c-3.86,0.17-7.52-0.04-11.01-0.57c-6.99-1.04-13.35-3.28-19.24-6.4
				c-5.88-3.14-11.3-7.15-16.09-12.35c-2.4-2.59-4.63-5.5-6.67-8.78c-1.01-1.65-1.97-3.4-2.87-5.27
				C244.84,219.31,244,217.34,243.35,215.01L243.35,215.01z"/>
			<path style="clip-path:url(#SVGID_00000059278456024620424860000016738398839471311751_);fill:#090909;" d="M438.94,215.01
				c-0.65,2.33-1.5,4.3-2.37,6.2c-0.89,1.88-1.85,3.63-2.87,5.27c-2.04,3.28-4.27,6.19-6.67,8.78c-4.79,5.2-10.21,9.21-16.09,12.35
				c-5.89,3.12-12.25,5.36-19.24,6.4c-3.49,0.53-7.15,0.74-11.01,0.57c-1.93-0.09-3.92-0.28-5.98-0.61
				c-2.07-0.35-4.18-0.77-6.47-1.55c0.65-2.34,1.49-4.31,2.36-6.22c0.89-1.88,1.85-3.64,2.86-5.29c2.03-3.28,4.26-6.2,6.66-8.78
				c4.79-5.2,10.22-9.2,16.11-12.31c5.9-3.1,12.27-5.33,19.26-6.36c3.49-0.53,7.15-0.74,11.01-0.58c1.93,0.09,3.92,0.28,5.97,0.6
				C434.54,213.83,436.64,214.24,438.94,215.01L438.94,215.01z"/>
			<polygon style="clip-path:url(#SVGID_00000059278456024620424860000016738398839471311751_);fill:#1B1B1C;" points="
				338.96,295.78 338.96,315.75 304.84,315.75 304.84,317.32 374.49,317.32 374.49,315.75 304.84,315.75 304.84,317.32 
				340.53,317.32 340.53,295.78 338.96,295.78 			"/>
			<polygon style="clip-path:url(#SVGID_00000059278456024620424860000016738398839471311751_);fill:#111111;" points="
				320.6,328.41 314.05,317.06 327.15,317.06 320.6,328.41 			"/>
			<polygon style="clip-path:url(#SVGID_00000059278456024620424860000016738398839471311751_);fill:#070707;" points="
				320.6,328.41 320.83,328.28 314.51,317.32 326.7,317.32 320.38,328.28 320.6,328.41 320.83,328.28 320.6,328.41 320.83,328.54 
				327.61,316.8 313.6,316.8 320.6,328.93 320.83,328.54 320.6,328.41 			"/>
			<polygon style="clip-path:url(#SVGID_00000059278456024620424860000016738398839471311751_);fill:#111111;" points="
				356.98,328.41 350.43,317.06 363.53,317.06 356.98,328.41 			"/>
			<polygon style="clip-path:url(#SVGID_00000059278456024620424860000016738398839471311751_);fill:#070707;" points="
				356.98,328.41 357.21,328.28 350.89,317.32 363.08,317.32 356.76,328.28 356.98,328.41 357.21,328.28 356.98,328.41 
				357.21,328.54 363.99,316.8 349.98,316.8 356.98,328.93 357.21,328.54 356.98,328.41 			"/>
			<path style="clip-path:url(#SVGID_00000059278456024620424860000016738398839471311751_);fill:#1B1B1C;" d="M509.49,308.48
				c0,6.1-1.44,12.65-4.17,19.3c-4.1,9.99-11.11,20.18-20.23,29.37c-9.11,9.19-20.31,17.38-32.7,23.46
				c-14.73,7.23-31.98,13.09-50.97,17.14c-18.99,4.04-39.72,6.27-61.43,6.27c-22.36,0-43.69-2.36-63.15-6.64
				c-19.46-4.28-37.04-10.47-51.9-18.09c-15.9-8.15-30.54-18.89-41.05-30.58c-5.26-5.84-9.48-11.92-12.35-17.98
				c-2.88-6.07-4.41-12.09-4.41-17.93h-7.86c0,7.23,1.89,14.4,5.17,21.3c4.92,10.36,12.95,20.17,22.82,29.03
				c9.87,8.86,21.62,16.76,34.1,23.16c15.56,7.98,33.76,14.37,53.8,18.78c20.04,4.41,41.92,6.83,64.83,6.83
				c22.24,0,43.51-2.28,63.06-6.44c19.55-4.16,37.4-10.21,52.8-17.77c17.61-8.65,32.85-21.19,43.8-35.15
				c5.47-6.98,9.87-14.33,12.93-21.76c3.05-7.43,4.76-14.96,4.76-22.29H509.49L509.49,308.48z"/>
		</g>
	</g>
</g>
</svg>
